<svg xmlns="http://www.w3.org/2000/svg" viewBox="0 0 570.67 580.19"><defs><style>.cls-1,.cls-5{fill:#f1f2f2;}.cls-1,.cls-11,.cls-2,.cls-5,.cls-6{stroke:#231f20;}.cls-1,.cls-10,.cls-11,.cls-12,.cls-2,.cls-5,.cls-6{stroke-miterlimit:10;}.cls-2,.cls-9{fill:#27aae1;}.cls-3{fill:#fff;}.cls-4{fill:#231f20;}.cls-10,.cls-12,.cls-5,.cls-6{stroke-width:2px;}.cls-10,.cls-11,.cls-12,.cls-6{fill:none;}.cls-7{fill:#ec008c;}.cls-8{fill:#8dc63f;}.cls-10{stroke:#ec008c;}.cls-12{stroke:#414042;}.cls-13{fill:#414042;}</style></defs><g id="Layer_2" data-name="Layer 2"><g id="Layer_1-2" data-name="Layer 1"><rect class="cls-1" x="1" y="414.77" width="569.17" height="164.92" rx="39.58"/><rect class="cls-2" x="182.67" y="441.51" width="181.67" height="114.17" rx="32.92"/><path class="cls-3" d="M216.94,493.64a22.58,22.58,0,0,1,3.51-.27c2.38,0,4.07.55,5.19,1.6a5.87,5.87,0,0,1,1.8,4.59,6.77,6.77,0,0,1-1.84,5c-1.2,1.2-3.17,1.84-5.66,1.84a25.46,25.46,0,0,1-3-.15ZM218.59,505a10.09,10.09,0,0,0,1.67.09c3.54,0,5.46-2,5.46-5.43,0-3-1.7-4.94-5.19-4.94a9.78,9.78,0,0,0-1.94.17Z"/><path class="cls-3" d="M234.63,506.27l-.14-1.16h-.05a3.44,3.44,0,0,1-2.81,1.37,2.62,2.62,0,0,1-2.82-2.64c0-2.22,2-3.44,5.53-3.42v-.19a1.9,1.9,0,0,0-2.09-2.13,4.55,4.55,0,0,0-2.39.69l-.38-1.11a5.74,5.74,0,0,1,3-.81c2.81,0,3.49,1.92,3.49,3.76v3.44a12.35,12.35,0,0,0,.16,2.2Zm-.25-4.69c-1.82,0-3.89.28-3.89,2.07a1.47,1.47,0,0,0,1.57,1.59,2.3,2.3,0,0,0,2.23-1.53,2.1,2.1,0,0,0,.09-.54Z"/><path class="cls-3" d="M238.47,504.56a4.37,4.37,0,0,0,2.2.66c1.21,0,1.79-.6,1.79-1.36s-.48-1.24-1.71-1.69c-1.66-.59-2.44-1.5-2.44-2.61,0-1.48,1.2-2.69,3.18-2.69a4.55,4.55,0,0,1,2.26.57l-.42,1.21a3.57,3.57,0,0,0-1.88-.53c-1,0-1.54.57-1.54,1.25s.55,1.11,1.75,1.56c1.59.61,2.41,1.41,2.41,2.78,0,1.61-1.25,2.75-3.44,2.75a5.2,5.2,0,0,1-2.58-.63Z"/><path class="cls-3" d="M246.22,492.78h1.67v5.74h0a3.07,3.07,0,0,1,1.19-1.18,3.53,3.53,0,0,1,1.71-.47c1.24,0,3.21.76,3.21,3.93v5.47h-1.67V501c0-1.48-.55-2.74-2.13-2.74a2.41,2.41,0,0,0-2.24,1.67,2.15,2.15,0,0,0-.11.8v5.55h-1.67Z"/><path class="cls-3" d="M256.69,506.27c0-.63.07-1.56.07-2.37V492.78h1.66v5.78h0a3.43,3.43,0,0,1,3.14-1.69c2.28,0,3.89,1.9,3.87,4.69,0,3.28-2.07,4.92-4.12,4.92a3.28,3.28,0,0,1-3.08-1.73h-.05l-.08,1.52Zm1.73-3.69a3,3,0,0,0,.07.61,2.58,2.58,0,0,0,2.51,2c1.75,0,2.79-1.43,2.79-3.53,0-1.85-1-3.42-2.73-3.42a2.66,2.66,0,0,0-2.55,2.05,3.2,3.2,0,0,0-.09.68Z"/><path class="cls-3" d="M275.89,501.6a4.49,4.49,0,0,1-4.57,4.88,4.37,4.37,0,0,1-4.41-4.73c0-3.08,2-4.88,4.56-4.88S275.89,498.79,275.89,501.6Zm-7.29.09c0,2,1.16,3.53,2.79,3.53s2.79-1.5,2.79-3.57c0-1.55-.78-3.53-2.75-3.53S268.6,499.94,268.6,501.69Z"/><path class="cls-3" d="M283.1,506.27l-.14-1.16h0a3.46,3.46,0,0,1-2.82,1.37,2.62,2.62,0,0,1-2.81-2.64c0-2.22,2-3.44,5.53-3.42v-.19a1.9,1.9,0,0,0-2.09-2.13,4.55,4.55,0,0,0-2.39.69l-.38-1.11a5.74,5.74,0,0,1,3-.81c2.81,0,3.49,1.92,3.49,3.76v3.44a12.35,12.35,0,0,0,.16,2.2Zm-.25-4.69c-1.83,0-3.9.28-3.9,2.07a1.48,1.48,0,0,0,1.58,1.59,2.28,2.28,0,0,0,2.22-1.53,1.77,1.77,0,0,0,.1-.54Z"/><path class="cls-3" d="M287.16,499.94c0-1.08,0-2-.07-2.86h1.46l.06,1.8h.07a2.77,2.77,0,0,1,2.55-2,1.7,1.7,0,0,1,.47.05v1.58a2.37,2.37,0,0,0-.57-.06,2.35,2.35,0,0,0-2.24,2.15,4.46,4.46,0,0,0-.08.78v4.9h-1.65Z"/><path class="cls-3" d="M301.13,492.78V503.9c0,.81,0,1.74.07,2.37h-1.5l-.08-1.6h0a3.41,3.41,0,0,1-3.14,1.81c-2.22,0-3.93-1.88-3.93-4.67,0-3.06,1.88-4.94,4.12-4.94a3.08,3.08,0,0,1,2.78,1.4h0v-5.49Zm-1.68,8a2.85,2.85,0,0,0-.07-.71,2.46,2.46,0,0,0-2.41-1.93c-1.73,0-2.76,1.52-2.76,3.55,0,1.86.91,3.4,2.72,3.4a2.52,2.52,0,0,0,2.45-2,2.71,2.71,0,0,0,.07-.72Z"/><path class="cls-3" d="M303.31,505.28a1.13,1.13,0,0,1,1.14-1.2,1.2,1.2,0,1,1-1.14,1.2Z"/><path class="cls-3" d="M310.51,506.27l-4.18-12.8h1.79l2,6.3c.55,1.73,1,3.29,1.37,4.79h0c.36-1.48.89-3.1,1.46-4.77l2.17-6.32h1.76l-4.57,12.8Z"/><path class="cls-3" d="M325.6,503.76c0,.95,0,1.79.07,2.51h-1.48l-.09-1.5h0a3.47,3.47,0,0,1-3,1.71c-1.45,0-3.17-.8-3.17-4v-5.37h1.67v5.09c0,1.74.53,2.92,2.05,2.92a2.41,2.41,0,0,0,2.2-1.52,2.3,2.3,0,0,0,.16-.85v-5.64h1.67Z"/><path class="cls-3" d="M329.3,502a3,3,0,0,0,3.16,3.19,6,6,0,0,0,2.54-.48l.29,1.2a7.4,7.4,0,0,1-3.06.57,4.27,4.27,0,0,1-4.52-4.64c0-2.77,1.63-4.95,4.31-4.95,3,0,3.8,2.64,3.8,4.33a6,6,0,0,1-.06.78Zm4.9-1.2c0-1.06-.43-2.72-2.31-2.72a2.78,2.78,0,0,0-2.57,2.72Z"/><path class="cls-4" d="M70.07,448.84a6.05,6.05,0,0,1-2.64.54,4.37,4.37,0,0,1-4.58-4.7,4.67,4.67,0,0,1,4.94-4.88,5.56,5.56,0,0,1,2.32.48l-.38,1.29a3.84,3.84,0,0,0-1.94-.44,3.47,3.47,0,0,0-.05,6.92,4.74,4.74,0,0,0,2.05-.46Z"/><path class="cls-4" d="M77.12,449.19,77,448h-.06a3.42,3.42,0,0,1-2.81,1.37,2.63,2.63,0,0,1-2.81-2.65c0-2.22,2-3.43,5.53-3.42v-.18A1.9,1.9,0,0,0,74.75,441a4.58,4.58,0,0,0-2.4.68L72,440.6a5.74,5.74,0,0,1,3-.82c2.82,0,3.5,1.92,3.5,3.76V447a13.47,13.47,0,0,0,.15,2.21Zm-.25-4.7c-1.82,0-3.89.29-3.89,2.07a1.48,1.48,0,0,0,1.58,1.6,2.29,2.29,0,0,0,2.22-1.54,1.64,1.64,0,0,0,.09-.53Z"/><path class="cls-4" d="M81.19,442.86c0-1.08,0-2-.08-2.87h1.46l.06,1.81h.08a2.75,2.75,0,0,1,2.54-2,1.75,1.75,0,0,1,.48.06v1.58a2.37,2.37,0,0,0-.57-.06,2.33,2.33,0,0,0-2.24,2.15,4.36,4.36,0,0,0-.08.78v4.9H81.19Z"/><path class="cls-4" d="M87.17,447.48a4.44,4.44,0,0,0,2.21.66c1.21,0,1.78-.61,1.78-1.37s-.47-1.23-1.71-1.69c-1.65-.59-2.43-1.5-2.43-2.6,0-1.48,1.2-2.7,3.17-2.7a4.62,4.62,0,0,1,2.26.57L92,441.57a3.57,3.57,0,0,0-1.88-.53c-1,0-1.54.57-1.54,1.25s.55,1.1,1.74,1.56c1.6.61,2.42,1.4,2.42,2.77,0,1.62-1.26,2.76-3.44,2.76a5.27,5.27,0,0,1-2.59-.63Z"/><path class="cls-4" d="M94.32,448.2a1.13,1.13,0,1,1,1.12,1.2A1.12,1.12,0,0,1,94.32,448.2Z"/><path class="cls-4" d="M96.41,451.85a2.7,2.7,0,0,0,1.82-.71c.46-.53.63-1.25.63-3.45V440h1.67v8.34c0,1.79-.29,2.95-1.1,3.78a4.26,4.26,0,0,1-2.85,1.05Zm4.31-14.44a1,1,0,0,1-1,1,1,1,0,0,1-1-1,1,1,0,0,1,1.06-1.05A1,1,0,0,1,100.72,437.41Z"/><path class="cls-4" d="M103,447.48a4.4,4.4,0,0,0,2.2.66c1.22,0,1.79-.61,1.79-1.37s-.48-1.23-1.71-1.69c-1.66-.59-2.43-1.5-2.43-2.6,0-1.48,1.19-2.7,3.17-2.7a4.62,4.62,0,0,1,2.26.57l-.42,1.22A3.57,3.57,0,0,0,106,441c-1,0-1.54.57-1.54,1.25s.55,1.1,1.75,1.56c1.6.61,2.41,1.4,2.41,2.77,0,1.62-1.25,2.76-3.44,2.76a5.26,5.26,0,0,1-2.58-.63Z"/><rect class="cls-5" x="1" y="1" width="561.93" height="241.15" rx="29.3"/><line class="cls-6" x1="1" y1="30.3" x2="562.93" y2="30.3"/><circle class="cls-7" cx="485.76" cy="16.15" r="7.08"/><circle class="cls-8" cx="509.91" cy="16.15" r="7.08"/><circle class="cls-9" cx="534.07" cy="16.15" r="7.08"/><path class="cls-4" d="M58.5,41.24l5.57-2.87v.83l-4.69,2.35v0l4.69,2.35v.83L58.5,41.88Z"/><path class="cls-4" d="M70.75,36.24v7c0,.52,0,1.1,0,1.5h-1l0-1h0a2.15,2.15,0,0,1-2,1.14c-1.4,0-2.48-1.18-2.48-3,0-1.93,1.18-3.12,2.6-3.12a1.93,1.93,0,0,1,1.75.89h0V36.24Zm-1.06,5.07a2.18,2.18,0,0,0,0-.44,1.55,1.55,0,0,0-1.53-1.23c-1.09,0-1.74,1-1.74,2.24S67,44,68.1,44a1.6,1.6,0,0,0,1.55-1.26,2.15,2.15,0,0,0,0-.45Z"/><path class="cls-4" d="M73.68,37.31A.62.62,0,0,1,73,38a.65.65,0,0,1,0-1.3A.62.62,0,0,1,73.68,37.31ZM72.5,44.75V39h1.06v5.8Z"/><path class="cls-4" d="M75.72,39l1.14,3.26c.19.53.35,1,.47,1.49h0c.14-.48.3-1,.5-1.49L79,39h1.11l-2.28,5.8h-1L74.59,39Z"/><path class="cls-4" d="M87.77,44.54a4,4,0,0,1-1.67.33,2.76,2.76,0,0,1-2.89-3,2.94,2.94,0,0,1,3.12-3.08,3.44,3.44,0,0,1,1.46.3l-.24.81a2.5,2.5,0,0,0-1.22-.27,2.19,2.19,0,0,0,0,4.36,2.9,2.9,0,0,0,1.3-.29Z"/><path class="cls-4" d="M89,36.24h1.06v8.51H89Z"/><path class="cls-4" d="M95.05,44.75,95,44h0a2.14,2.14,0,0,1-1.77.86,1.65,1.65,0,0,1-1.78-1.66c0-1.41,1.25-2.18,3.49-2.16v-.12a1.2,1.2,0,0,0-1.32-1.35A2.84,2.84,0,0,0,92,40l-.24-.7a3.64,3.64,0,0,1,1.91-.52c1.77,0,2.2,1.22,2.2,2.38v2.17a8.4,8.4,0,0,0,.1,1.39Zm-.15-3c-1.16,0-2.46.18-2.46,1.31a.93.93,0,0,0,1,1,1.45,1.45,0,0,0,1.41-1,1.36,1.36,0,0,0,.06-.33Z"/><path class="cls-4" d="M97.48,43.67a2.69,2.69,0,0,0,1.39.42c.77,0,1.13-.38,1.13-.86s-.3-.78-1.08-1.07c-1-.37-1.54-.95-1.54-1.64a1.79,1.79,0,0,1,2-1.71,2.91,2.91,0,0,1,1.43.36l-.26.77a2.32,2.32,0,0,0-1.19-.33c-.62,0-1,.36-1,.79s.35.69,1.1,1c1,.38,1.53.89,1.53,1.75,0,1-.8,1.74-2.18,1.74a3.44,3.44,0,0,1-1.63-.39Z"/><path class="cls-4" d="M102.23,43.67a2.69,2.69,0,0,0,1.39.42c.77,0,1.13-.38,1.13-.86s-.3-.78-1.08-1.07c-1-.37-1.54-.95-1.54-1.64a1.8,1.8,0,0,1,2-1.71,2.9,2.9,0,0,1,1.42.36l-.26.77a2.32,2.32,0,0,0-1.19-.33c-.62,0-1,.36-1,.79s.35.69,1.1,1c1,.38,1.53.89,1.53,1.75,0,1-.79,1.74-2.17,1.74a3.38,3.38,0,0,1-1.63-.39Z"/><path class="cls-4" d="M106.73,40.71V40h6.19v.72Zm0,2.35v-.72h6.19v.72Z"/><path class="cls-4" d="M115.06,36.54l-.21,2.87h-.64l-.2-2.87Zm1.78,0-.2,2.87H116l-.2-2.87Z"/><path class="cls-4" d="M118.32,40.84c0-.74,0-1.34,0-1.89h1l0,1h0a2.28,2.28,0,0,1,2.06-1.13c1.41,0,2.46,1.19,2.46,2.95,0,2.09-1.27,3.12-2.63,3.12a2,2,0,0,1-1.79-.91h0v3.16h-1Zm1,1.55a2.82,2.82,0,0,0,0,.43A1.64,1.64,0,0,0,121,44.06c1.11,0,1.76-.92,1.76-2.25,0-1.16-.61-2.16-1.73-2.16A1.68,1.68,0,0,0,119.44,41a1.56,1.56,0,0,0-.08.43Z"/><path class="cls-4" d="M128.36,44.75l-.08-.73h0a2.13,2.13,0,0,1-1.77.86,1.65,1.65,0,0,1-1.78-1.66c0-1.41,1.25-2.18,3.49-2.16v-.12a1.2,1.2,0,0,0-1.32-1.35,2.84,2.84,0,0,0-1.51.44l-.24-.7a3.64,3.64,0,0,1,1.91-.52c1.77,0,2.21,1.22,2.21,2.38v2.17a8.47,8.47,0,0,0,.09,1.39Zm-.15-3c-1.15,0-2.46.18-2.46,1.31a.93.93,0,0,0,1,1,1.45,1.45,0,0,0,1.41-1,1.36,1.36,0,0,0,.06-.33Z"/><path class="cls-4" d="M135.93,39c0,.42,0,.88,0,1.59v3.37a3.35,3.35,0,0,1-.83,2.65,3.08,3.08,0,0,1-2.11.7,3.73,3.73,0,0,1-1.93-.48l.26-.81a3.25,3.25,0,0,0,1.7.46c1.08,0,1.87-.56,1.87-2v-.64h0a2.07,2.07,0,0,1-1.85,1,2.6,2.6,0,0,1-2.47-2.83,2.8,2.8,0,0,1,2.62-3.09,1.94,1.94,0,0,1,1.81,1h0l0-.87Zm-1.09,2.29a1.44,1.44,0,0,0-.06-.48,1.53,1.53,0,0,0-1.47-1.12c-1,0-1.73.85-1.73,2.2,0,1.14.58,2.08,1.72,2.08a1.54,1.54,0,0,0,1.46-1.08,1.81,1.81,0,0,0,.08-.56Z"/><path class="cls-4" d="M138.23,42a1.86,1.86,0,0,0,2,2,4,4,0,0,0,1.61-.3l.18.75a4.71,4.71,0,0,1-1.93.36,2.7,2.7,0,0,1-2.86-2.93c0-1.75,1-3.13,2.72-3.13a2.46,2.46,0,0,1,2.4,2.74,4.88,4.88,0,0,1,0,.49Zm3.09-.76a1.5,1.5,0,0,0-1.46-1.71,1.74,1.74,0,0,0-1.62,1.71Z"/><path class="cls-4" d="M146.44,41.12v.78h-3v-.78Z"/><path class="cls-4" d="M147.67,36.24h1.06v3.62h0a2,2,0,0,1,.76-.75,2.16,2.16,0,0,1,1.08-.3c.78,0,2,.48,2,2.49v3.45h-1.05V41.42c0-.94-.35-1.73-1.35-1.73a1.51,1.51,0,0,0-1.41,1.06,1.23,1.23,0,0,0-.07.5v3.5h-1.06Z"/><path class="cls-4" d="M154.92,42a1.86,1.86,0,0,0,2,2,4,4,0,0,0,1.61-.3l.18.75a4.67,4.67,0,0,1-1.93.36,2.7,2.7,0,0,1-2.86-2.93c0-1.75,1-3.13,2.72-3.13a2.46,2.46,0,0,1,2.4,2.74,4.88,4.88,0,0,1,0,.49Zm3.09-.76a1.49,1.49,0,0,0-1.46-1.71,1.75,1.75,0,0,0-1.62,1.71Z"/><path class="cls-4" d="M163.56,44.75l-.09-.73h0a2.16,2.16,0,0,1-1.78.86,1.65,1.65,0,0,1-1.77-1.66c0-1.41,1.25-2.18,3.49-2.16v-.12a1.2,1.2,0,0,0-1.32-1.35,2.84,2.84,0,0,0-1.51.44l-.24-.7a3.6,3.6,0,0,1,1.9-.52c1.78,0,2.21,1.22,2.21,2.38v2.17a8.4,8.4,0,0,0,.1,1.39Zm-.16-3c-1.15,0-2.46.18-2.46,1.31a.93.93,0,0,0,1,1,1.45,1.45,0,0,0,1.4-1,1,1,0,0,0,.06-.33Z"/><path class="cls-4" d="M171.14,36.24v7c0,.52,0,1.1.05,1.5h-.95l-.05-1h0a2.14,2.14,0,0,1-2,1.14c-1.4,0-2.48-1.18-2.48-3,0-1.93,1.19-3.12,2.6-3.12a1.93,1.93,0,0,1,1.75.89h0V36.24Zm-1,5.07a2.2,2.2,0,0,0-.05-.44,1.55,1.55,0,0,0-1.53-1.23c-1.09,0-1.73,1-1.73,2.24s.57,2.15,1.71,2.15A1.59,1.59,0,0,0,170,42.77a2.14,2.14,0,0,0,.05-.45Z"/><path class="cls-4" d="M173.48,42a1.87,1.87,0,0,0,2,2,3.92,3.92,0,0,0,1.61-.3l.18.75a4.67,4.67,0,0,1-1.93.36,2.69,2.69,0,0,1-2.85-2.93c0-1.75,1-3.13,2.72-3.13a2.47,2.47,0,0,1,2.4,2.74,4.35,4.35,0,0,1,0,.49Zm3.1-.76a1.5,1.5,0,0,0-1.47-1.71,1.74,1.74,0,0,0-1.61,1.71Z"/><path class="cls-4" d="M178.91,40.76c0-.69,0-1.27,0-1.81h.92l0,1.14h.05a1.75,1.75,0,0,1,1.6-1.28,1.28,1.28,0,0,1,.3,0v1a1.23,1.23,0,0,0-.36,0A1.47,1.47,0,0,0,180,41.17a3.37,3.37,0,0,0-.05.49v3.09h-1Z"/><path class="cls-4" d="M183.61,36.54l-.2,2.87h-.65l-.19-2.87Zm1.79,0-.21,2.87h-.63l-.21-2.87Z"/><path class="cls-4" d="M192.36,41.9l-5.57,2.85v-.83l4.73-2.35v0l-4.73-2.35v-.83l5.57,2.86Z"/><path class="cls-4" d="M68.68,55.64l5.56-2.87v.83L69.55,56v0l4.69,2.35v.83l-5.56-2.87Z"/><path class="cls-4" d="M75.91,50.64H77v3.62h0a2,2,0,0,1,.76-.75,2.16,2.16,0,0,1,1.08-.3c.78,0,2,.48,2,2.49v3.45h-1V55.82c0-.94-.35-1.73-1.34-1.73A1.51,1.51,0,0,0,77,55.15a1.23,1.23,0,0,0-.07.5v3.5H75.91Z"/><path class="cls-4" d="M84.53,52.34h0l-1.35.73-.21-.8,1.71-.92h.9v7.8h-1Z"/><path class="cls-4" d="M94.21,56.3l-5.57,2.85v-.83L93.37,56v0L88.64,53.6v-.83l5.57,2.85Z"/><path class="cls-4" d="M101.56,58.89a5.2,5.2,0,0,1-2.13.38,3.77,3.77,0,0,1-4-4.09,4,4,0,0,1,4.22-4.24,4.26,4.26,0,0,1,1.92.36l-.26.85a3.77,3.77,0,0,0-1.63-.34,3,3,0,0,0-3.15,3.34,2.94,2.94,0,0,0,3.11,3.25,4.24,4.24,0,0,0,1.7-.34Z"/><path class="cls-4" d="M106,59.15l-.08-.73h0a2.14,2.14,0,0,1-1.77.86,1.65,1.65,0,0,1-1.78-1.66c0-1.41,1.25-2.18,3.49-2.16v-.12A1.2,1.2,0,0,0,104.47,54a2.84,2.84,0,0,0-1.51.44l-.24-.7a3.64,3.64,0,0,1,1.91-.52c1.77,0,2.2,1.22,2.2,2.38v2.17a8.4,8.4,0,0,0,.1,1.39Zm-.16-3c-1.15,0-2.45.18-2.45,1.31a.93.93,0,0,0,1,1,1.43,1.43,0,0,0,1.4-1,1,1,0,0,0,.06-.33Z"/><path class="cls-4" d="M108.54,55.16c0-.69,0-1.27-.05-1.81h.93l0,1.14h0a1.75,1.75,0,0,1,1.61-1.28,1.36,1.36,0,0,1,.3,0v1a1.32,1.32,0,0,0-.36,0,1.48,1.48,0,0,0-1.42,1.35,3.68,3.68,0,0,0,0,.5v3.09h-1Z"/><path class="cls-4" d="M115,51.07h1v7.21h3.45v.87H115Z"/><path class="cls-4" d="M121.85,51.71a.66.66,0,0,1-1.31,0,.64.64,0,0,1,.66-.65A.62.62,0,0,1,121.85,51.71Zm-1.18,7.44v-5.8h1.06v5.8Z"/><path class="cls-4" d="M123.34,58.07a2.69,2.69,0,0,0,1.39.42c.77,0,1.12-.38,1.12-.86s-.3-.78-1.07-1.07c-1-.37-1.54-1-1.54-1.64a1.79,1.79,0,0,1,2-1.71,2.91,2.91,0,0,1,1.43.36l-.26.77a2.32,2.32,0,0,0-1.19-.33c-.62,0-1,.36-1,.79s.35.69,1.1,1c1,.38,1.52.89,1.52,1.75,0,1-.79,1.74-2.17,1.74a3.44,3.44,0,0,1-1.63-.39Z"/><path class="cls-4" d="M129.5,51.68v1.67H131v.8H129.5v3.13c0,.72.21,1.13.79,1.13a2.78,2.78,0,0,0,.62-.07l0,.79a2.63,2.63,0,0,1-.93.14,1.49,1.49,0,0,1-1.14-.44,2.15,2.15,0,0,1-.41-1.51V54.15h-.9v-.8h.9V52Z"/><path class="cls-4" d="M132.12,55.64l5.57-2.87v.83L133,56v0l4.69,2.35v.83l-5.57-2.87Z"/><path class="cls-4" d="M138.47,59.63l3.34-8.69h.82l-3.36,8.69Z"/><path class="cls-4" d="M143.47,50.64h1.06v3.62h0a2,2,0,0,1,.76-.75,2.16,2.16,0,0,1,1.08-.3c.78,0,2,.48,2,2.49v3.45h-1V55.82c0-.94-.35-1.73-1.35-1.73a1.51,1.51,0,0,0-1.41,1.06,1.23,1.23,0,0,0-.07.5v3.5h-1.06Z"/><path class="cls-4" d="M152.09,52.34h0l-1.35.73-.21-.8,1.71-.92h.9v7.8h-1Z"/><path class="cls-4" d="M161.77,56.3l-5.57,2.85v-.83L160.93,56v0L156.2,53.6v-.83l5.57,2.85Z"/><path class="cls-4" d="M58.5,70l5.57-2.87V68l-4.69,2.35v0l4.69,2.35v.83L58.5,70.68Z"/><path class="cls-4" d="M64.85,74l3.35-8.69H69L65.65,74Z"/><path class="cls-4" d="M74.87,65v7c0,.52,0,1.1,0,1.5H74l0-1h0a2.13,2.13,0,0,1-2,1.14c-1.41,0-2.49-1.18-2.49-3,0-1.93,1.19-3.12,2.61-3.12a2,2,0,0,1,1.75.89h0V65Zm-1.06,5.07a1.65,1.65,0,0,0,0-.44,1.54,1.54,0,0,0-1.52-1.23c-1.09,0-1.74,1-1.74,2.24s.58,2.15,1.72,2.15a1.59,1.59,0,0,0,1.54-1.26,1.64,1.64,0,0,0,0-.45Z"/><path class="cls-4" d="M77.8,66.11a.63.63,0,0,1-.68.65.63.63,0,0,1-.63-.65.63.63,0,0,1,.66-.65A.62.62,0,0,1,77.8,66.11Zm-1.18,7.44v-5.8h1.06v5.8Z"/><path class="cls-4" d="M79.84,67.75,81,71a15.54,15.54,0,0,1,.46,1.49h0c.13-.48.3-1,.49-1.49l1.13-3.26h1.1l-2.28,5.8h-1l-2.21-5.8Z"/><path class="cls-4" d="M90.68,70.7l-5.56,2.85v-.83l4.72-2.35v0L85.12,68v-.83L90.68,70Z"/><path class="cls-4" d="M58.5,98.84,64.07,96v.83l-4.69,2.35v0l4.69,2.35v.83L58.5,99.48Z"/><path class="cls-4" d="M65.74,98.44c0-.74,0-1.34,0-1.89h1l0,1h0a2.27,2.27,0,0,1,2.06-1.13c1.4,0,2.46,1.19,2.46,3,0,2.09-1.27,3.12-2.64,3.12a2,2,0,0,1-1.79-.91h0v3.16h-1Zm1,1.55a2,2,0,0,0,0,.43,1.63,1.63,0,0,0,1.58,1.24c1.12,0,1.76-.92,1.76-2.25,0-1.16-.61-2.16-1.72-2.16a1.7,1.7,0,0,0-1.6,1.31,2,2,0,0,0-.07.43Z"/><path class="cls-4" d="M78.05,99.5l-5.57,2.85v-.83l4.73-2.35v0L72.48,96.8V96l5.57,2.86Z"/><path class="cls-4" d="M81.06,99.81l-.84,2.54H79.14l2.75-8.08h1.26l2.75,8.08H84.79l-.86-2.54ZM83.71,99l-.79-2.32c-.18-.53-.3-1-.42-1.48h0c-.12.48-.25,1-.4,1.46L81.28,99Z"/><path class="cls-4" d="M94.62,93.84v7c0,.52,0,1.11,0,1.5h-1l0-1h0a2.16,2.16,0,0,1-2,1.14c-1.41,0-2.49-1.18-2.49-3,0-1.93,1.19-3.12,2.61-3.12a2,2,0,0,1,1.75.89h0V93.84Zm-1.06,5.07a1.65,1.65,0,0,0,0-.44A1.54,1.54,0,0,0,92,97.24c-1.09,0-1.74,1-1.74,2.24s.58,2.15,1.72,2.15a1.59,1.59,0,0,0,1.54-1.26,1.64,1.64,0,0,0,0-.45Z"/><path class="cls-4" d="M97.55,94.92a.66.66,0,0,1-1.31,0,.64.64,0,0,1,.66-.66A.62.62,0,0,1,97.55,94.92Zm-1.18,7.43v-5.8h1.06v5.8Z"/><path class="cls-4" d="M99.18,98.36c0-.69,0-1.27-.05-1.81h.93l0,1.14h0a1.75,1.75,0,0,1,1.61-1.28,1.36,1.36,0,0,1,.3,0v1a1.32,1.32,0,0,0-.36,0,1.48,1.48,0,0,0-1.42,1.36,3.37,3.37,0,0,0,0,.49v3.09h-1Z"/><path class="cls-4" d="M103.57,99.64a1.87,1.87,0,0,0,2,2,4,4,0,0,0,1.61-.3l.18.75a4.67,4.67,0,0,1-1.93.36,2.7,2.7,0,0,1-2.86-2.93c0-1.75,1-3.13,2.73-3.13a2.47,2.47,0,0,1,2.4,2.74,4.35,4.35,0,0,1,0,.49Zm3.1-.76a1.5,1.5,0,0,0-1.47-1.71,1.76,1.76,0,0,0-1.62,1.71Z"/><path class="cls-4" d="M110.27,94.88v1.67h1.51v.8h-1.51v3.13c0,.72.2,1.13.79,1.13a2.68,2.68,0,0,0,.61-.07l0,.79a2.73,2.73,0,0,1-.94.14,1.5,1.5,0,0,1-1.14-.44,2.15,2.15,0,0,1-.4-1.51V97.35h-.9v-.8h.9V95.16Z"/><path class="cls-4" d="M118.15,99.4a2.83,2.83,0,0,1-2.89,3.08,2.76,2.76,0,0,1-2.78-3,2.83,2.83,0,0,1,2.87-3.09A2.76,2.76,0,0,1,118.15,99.4Zm-4.61.06c0,1.27.74,2.23,1.77,2.23s1.76-1,1.76-2.25c0-1-.49-2.23-1.74-2.23S113.54,98.36,113.54,99.46Z"/><path class="cls-4" d="M119.48,98.36c0-.69,0-1.27,0-1.81h.92l0,1.14h0a1.76,1.76,0,0,1,1.61-1.28,1.36,1.36,0,0,1,.3,0v1a1.32,1.32,0,0,0-.36,0,1.47,1.47,0,0,0-1.41,1.36,2.38,2.38,0,0,0,0,.49v3.09h-1Z"/><path class="cls-4" d="M124.09,96.55l1.27,3.43c.13.38.28.84.37,1.18h0c.11-.34.23-.79.37-1.21l1.15-3.4h1.12l-1.59,4.13c-.75,2-1.27,3-2,3.64a2.9,2.9,0,0,1-1.29.68l-.27-.89a2.71,2.71,0,0,0,.93-.51,3.21,3.21,0,0,0,.88-1.18.76.76,0,0,0,.09-.25,1.18,1.18,0,0,0-.07-.27l-2.15-5.35Z"/><path class="cls-4" d="M137.16,99.4a2.83,2.83,0,0,1-2.89,3.08,2.76,2.76,0,0,1-2.79-3,2.84,2.84,0,0,1,2.88-3.09A2.76,2.76,0,0,1,137.16,99.4Zm-4.61.06c0,1.27.73,2.23,1.76,2.23s1.77-1,1.77-2.25c0-1-.49-2.23-1.74-2.23S132.55,98.36,132.55,99.46Z"/><path class="cls-4" d="M138.6,102.35v-5h-.82v-.8h.82v-.28a2.76,2.76,0,0,1,.67-2,2,2,0,0,1,1.42-.54,2.57,2.57,0,0,1,.9.17l-.15.82a1.58,1.58,0,0,0-.67-.13c-.9,0-1.13.79-1.13,1.67v.32h1.41v.8h-1.41v5Z"/><path class="cls-4" d="M148.68,102.14a4,4,0,0,1-1.67.33,2.76,2.76,0,0,1-2.89-3,2.94,2.94,0,0,1,3.12-3.08,3.44,3.44,0,0,1,1.46.3l-.24.81a2.5,2.5,0,0,0-1.22-.27,2.19,2.19,0,0,0,0,4.36,2.9,2.9,0,0,0,1.3-.29Z"/><path class="cls-4" d="M153.13,102.35l-.08-.73h0a2.15,2.15,0,0,1-1.78.86,1.65,1.65,0,0,1-1.77-1.66c0-1.41,1.25-2.17,3.49-2.16v-.12a1.2,1.2,0,0,0-1.32-1.35,2.84,2.84,0,0,0-1.51.44l-.24-.7a3.61,3.61,0,0,1,1.91-.52c1.77,0,2.2,1.22,2.2,2.38V101a8.32,8.32,0,0,0,.1,1.39Zm-.16-3c-1.15,0-2.46.18-2.46,1.31a.93.93,0,0,0,1,1,1.43,1.43,0,0,0,1.4-1,1,1,0,0,0,.06-.33Z"/><path class="cls-4" d="M155.7,98.36c0-.69,0-1.27,0-1.81h.92l0,1.14h0a1.75,1.75,0,0,1,1.61-1.28,1.19,1.19,0,0,1,.29,0v1a1.2,1.2,0,0,0-.35,0,1.47,1.47,0,0,0-1.42,1.36,3.37,3.37,0,0,0,0,.49v3.09h-1Z"/><path class="cls-4" d="M159.48,101.27a2.69,2.69,0,0,0,1.39.42c.77,0,1.13-.38,1.13-.86s-.3-.78-1.08-1.07c-1-.37-1.54-1-1.54-1.64a1.8,1.8,0,0,1,2-1.71,2.9,2.9,0,0,1,1.42.36l-.26.77a2.32,2.32,0,0,0-1.19-.33c-.62,0-1,.36-1,.79s.35.69,1.1,1c1,.38,1.53.89,1.53,1.75,0,1-.79,1.74-2.17,1.74a3.45,3.45,0,0,1-1.64-.39Z"/><path class="cls-4" d="M166.92,98.12c0-.6,0-1.09,0-1.57h.92l.05.93h0a2,2,0,0,1,1.82-1.07,1.71,1.71,0,0,1,1.64,1.17h0a2.35,2.35,0,0,1,.65-.76,2,2,0,0,1,1.28-.41c.77,0,1.91.51,1.91,2.52v3.42h-1V99.06c0-1.11-.4-1.78-1.25-1.78a1.36,1.36,0,0,0-1.25,1,1.63,1.63,0,0,0-.09.53v3.58h-1V98.87c0-.92-.41-1.59-1.21-1.59a1.45,1.45,0,0,0-1.31,1,1.49,1.49,0,0,0-.08.52v3.5h-1Z"/><path class="cls-4" d="M180.14,102.35l-.08-.73h0a2.14,2.14,0,0,1-1.77.86,1.65,1.65,0,0,1-1.78-1.66c0-1.41,1.25-2.17,3.49-2.16v-.12a1.2,1.2,0,0,0-1.32-1.35,2.84,2.84,0,0,0-1.51.44l-.24-.7a3.64,3.64,0,0,1,1.91-.52c1.77,0,2.2,1.22,2.2,2.38V101a8.32,8.32,0,0,0,.1,1.39Zm-.16-3c-1.15,0-2.45.18-2.45,1.31a.93.93,0,0,0,1,1,1.43,1.43,0,0,0,1.4-1,1,1,0,0,0,.06-.33Z"/><path class="cls-4" d="M182.71,98.12c0-.6,0-1.09-.05-1.57h.94l.06,1h0a2.13,2.13,0,0,1,1.92-1.1c.8,0,2.05.48,2.05,2.47v3.47H186.6V99c0-.93-.35-1.71-1.35-1.71a1.5,1.5,0,0,0-1.41,1.08,1.45,1.45,0,0,0-.07.49v3.49h-1.06Z"/><path class="cls-4" d="M194.23,100.77c0,.6,0,1.13.05,1.58h-.94l-.06-.95h0a2.19,2.19,0,0,1-1.92,1.08c-.91,0-2-.5-2-2.54V96.55h1.06v3.21c0,1.1.34,1.85,1.3,1.85a1.54,1.54,0,0,0,1.39-1,1.57,1.57,0,0,0,.09-.54V96.55h1.06Z"/><path class="cls-4" d="M196.09,102.35v-5h-.82v-.8h.82v-.28a2.76,2.76,0,0,1,.67-2,2.06,2.06,0,0,1,1.42-.54,2.57,2.57,0,0,1,.9.17l-.15.82a1.58,1.58,0,0,0-.67-.13c-.9,0-1.13.79-1.13,1.67v.32h1.41v.8h-1.41v5Z"/><path class="cls-4" d="M202.7,102.35l-.08-.73h0a2.14,2.14,0,0,1-1.77.86,1.65,1.65,0,0,1-1.78-1.66c0-1.41,1.25-2.17,3.49-2.16v-.12a1.2,1.2,0,0,0-1.32-1.35,2.84,2.84,0,0,0-1.51.44l-.24-.7a3.64,3.64,0,0,1,1.91-.52c1.77,0,2.2,1.22,2.2,2.38V101a8.32,8.32,0,0,0,.1,1.39Zm-.16-3c-1.15,0-2.45.18-2.45,1.31a.93.93,0,0,0,1,1,1.43,1.43,0,0,0,1.4-1,1,1,0,0,0,.06-.33Z"/><path class="cls-4" d="M209.41,102.14a4,4,0,0,1-1.67.33,2.76,2.76,0,0,1-2.89-3A2.94,2.94,0,0,1,208,96.43a3.44,3.44,0,0,1,1.46.3l-.24.81a2.5,2.5,0,0,0-1.22-.27,2.19,2.19,0,0,0,0,4.36,2.9,2.9,0,0,0,1.3-.29Z"/><path class="cls-4" d="M212.07,94.88v1.67h1.51v.8h-1.51v3.13c0,.72.21,1.13.79,1.13a2.78,2.78,0,0,0,.62-.07l0,.79a2.63,2.63,0,0,1-.93.14,1.49,1.49,0,0,1-1.14-.44,2.15,2.15,0,0,1-.41-1.51V97.35h-.9v-.8h.9V95.16Z"/><path class="cls-4" d="M219.63,100.77c0,.6,0,1.13.05,1.58h-.94l-.06-.95h0a2.19,2.19,0,0,1-1.92,1.08c-.91,0-2-.5-2-2.54V96.55h1v3.21c0,1.1.34,1.85,1.3,1.85a1.52,1.52,0,0,0,1.39-1,1.57,1.57,0,0,0,.1-.54V96.55h1Z"/><path class="cls-4" d="M221.39,98.36c0-.69,0-1.27,0-1.81h.92l0,1.14h0A1.76,1.76,0,0,1,224,96.41a1.28,1.28,0,0,1,.3,0v1a1.28,1.28,0,0,0-.36,0,1.47,1.47,0,0,0-1.41,1.36,2.38,2.38,0,0,0,0,.49v3.09h-1Z"/><path class="cls-4" d="M225.78,99.64a1.86,1.86,0,0,0,2,2,3.91,3.91,0,0,0,1.6-.3l.19.75a4.72,4.72,0,0,1-1.94.36,2.69,2.69,0,0,1-2.85-2.93c0-1.75,1-3.13,2.72-3.13a2.46,2.46,0,0,1,2.4,2.74,2.81,2.81,0,0,1,0,.49Zm3.09-.76a1.5,1.5,0,0,0-1.46-1.71,1.74,1.74,0,0,0-1.62,1.71Z"/><path class="cls-4" d="M231.2,98.36c0-.69,0-1.27,0-1.81h.93l0,1.14h0a1.75,1.75,0,0,1,1.61-1.28,1.36,1.36,0,0,1,.3,0v1a1.32,1.32,0,0,0-.36,0,1.48,1.48,0,0,0-1.42,1.36,3.37,3.37,0,0,0,0,.49v3.09h-1Z"/><path class="cls-4" d="M235.59,99.64a1.87,1.87,0,0,0,2,2,4,4,0,0,0,1.61-.3l.18.75a4.67,4.67,0,0,1-1.93.36,2.7,2.7,0,0,1-2.86-2.93c0-1.75,1-3.13,2.73-3.13a2.47,2.47,0,0,1,2.4,2.74,4.35,4.35,0,0,1,0,.49Zm3.1-.76a1.5,1.5,0,0,0-1.47-1.71,1.76,1.76,0,0,0-1.62,1.71Z"/><path class="cls-4" d="M241.8,94.14,241.59,97h-.65l-.19-2.87Z"/><path class="cls-4" d="M243.13,101.27a2.69,2.69,0,0,0,1.39.42c.77,0,1.13-.38,1.13-.86s-.3-.78-1.08-1.07c-1-.37-1.54-1-1.54-1.64a1.8,1.8,0,0,1,2-1.71,2.9,2.9,0,0,1,1.42.36l-.26.77a2.32,2.32,0,0,0-1.19-.33c-.62,0-1,.36-1,.79s.35.69,1.1,1c1,.38,1.53.89,1.53,1.75,0,1-.8,1.74-2.17,1.74a3.45,3.45,0,0,1-1.64-.39Z"/><path class="cls-4" d="M253.78,102.35l-.08-.73h0a2.13,2.13,0,0,1-1.77.86,1.65,1.65,0,0,1-1.78-1.66c0-1.41,1.25-2.17,3.49-2.16v-.12a1.2,1.2,0,0,0-1.32-1.35,2.84,2.84,0,0,0-1.51.44l-.24-.7a3.64,3.64,0,0,1,1.91-.52c1.77,0,2.21,1.22,2.21,2.38V101a8.39,8.39,0,0,0,.09,1.39Zm-.15-3c-1.15,0-2.46.18-2.46,1.31a.93.93,0,0,0,1,1,1.45,1.45,0,0,0,1.41-1,1.36,1.36,0,0,0,.06-.33Z"/><path class="cls-4" d="M256.35,98.12c0-.6,0-1.09-.05-1.57h.94l.06,1h0a2.13,2.13,0,0,1,1.92-1.1c.81,0,2.05.48,2.05,2.47v3.47h-1.05V99c0-.93-.35-1.71-1.35-1.71a1.5,1.5,0,0,0-1.41,1.08,1.45,1.45,0,0,0-.07.49v3.49h-1.06Z"/><path class="cls-4" d="M268,93.84v7c0,.52,0,1.11,0,1.5h-.94l-.05-1h0a2.13,2.13,0,0,1-2,1.14c-1.41,0-2.49-1.18-2.49-3,0-1.93,1.19-3.12,2.6-3.12a2,2,0,0,1,1.76.89h0V93.84ZM267,98.91a1.65,1.65,0,0,0-.05-.44,1.54,1.54,0,0,0-1.52-1.23c-1.09,0-1.74,1-1.74,2.24s.58,2.15,1.71,2.15a1.59,1.59,0,0,0,1.55-1.26,1.64,1.64,0,0,0,.05-.45Z"/><path class="cls-4" d="M273.6,94.88v1.67h1.51v.8H273.6v3.13c0,.72.2,1.13.79,1.13a2.68,2.68,0,0,0,.61-.07l.05.79a2.73,2.73,0,0,1-.94.14A1.49,1.49,0,0,1,273,102a2.15,2.15,0,0,1-.41-1.51V97.35h-.9v-.8h.9V95.16Z"/><path class="cls-4" d="M276.3,93.84h1.05v3.62h0a1.93,1.93,0,0,1,.75-.75,2.16,2.16,0,0,1,1.08-.3c.78,0,2,.48,2,2.49v3.45h-1.06V99c0-.94-.35-1.73-1.34-1.73a1.53,1.53,0,0,0-1.42,1.06,1.26,1.26,0,0,0-.07.5v3.5H276.3Z"/><path class="cls-4" d="M283.54,99.64a1.87,1.87,0,0,0,2,2,3.91,3.91,0,0,0,1.6-.3l.18.75a4.67,4.67,0,0,1-1.93.36,2.69,2.69,0,0,1-2.85-2.93c0-1.75,1-3.13,2.72-3.13a2.47,2.47,0,0,1,2.4,2.74,4.35,4.35,0,0,1,0,.49Zm3.1-.76a1.5,1.5,0,0,0-1.46-1.71,1.74,1.74,0,0,0-1.62,1.71Z"/><path class="cls-4" d="M290.14,94.92a.62.62,0,0,1-.67.64.62.62,0,0,1-.63-.64.64.64,0,0,1,.66-.66A.62.62,0,0,1,290.14,94.92ZM289,102.35v-5.8h1v5.8Z"/><path class="cls-4" d="M291.78,98.36c0-.69,0-1.27,0-1.81h.92l0,1.14h.05a1.75,1.75,0,0,1,1.6-1.28,1.28,1.28,0,0,1,.3,0v1a1.28,1.28,0,0,0-.36,0,1.47,1.47,0,0,0-1.41,1.36,2.38,2.38,0,0,0-.05.49v3.09h-1Z"/><path class="cls-4" d="M302.38,102.14a4,4,0,0,1-1.67.33,2.76,2.76,0,0,1-2.89-3,3,3,0,0,1,3.12-3.08,3.45,3.45,0,0,1,1.47.3l-.24.81a2.54,2.54,0,0,0-1.23-.27,2.19,2.19,0,0,0,0,4.36,2.86,2.86,0,0,0,1.29-.29Z"/><path class="cls-4" d="M306.83,102.35l-.08-.73h0a2.13,2.13,0,0,1-1.77.86,1.65,1.65,0,0,1-1.78-1.66c0-1.41,1.25-2.17,3.49-2.16v-.12a1.2,1.2,0,0,0-1.31-1.35,2.88,2.88,0,0,0-1.52.44l-.24-.7a3.64,3.64,0,0,1,1.91-.52c1.78,0,2.21,1.22,2.21,2.38V101a8.39,8.39,0,0,0,.09,1.39Zm-.15-3c-1.15,0-2.46.18-2.46,1.31a.93.93,0,0,0,1,1,1.45,1.45,0,0,0,1.4-1,1.36,1.36,0,0,0,.06-.33Z"/><path class="cls-4" d="M309.4,98.36c0-.69,0-1.27,0-1.81h.92l0,1.14h0A1.76,1.76,0,0,1,312,96.41a1.36,1.36,0,0,1,.3,0v1a1.28,1.28,0,0,0-.36,0,1.47,1.47,0,0,0-1.41,1.36,2.38,2.38,0,0,0-.05.49v3.09H309.4Z"/><path class="cls-4" d="M315.87,93.84h1.06v8.51h-1.06Z"/><path class="cls-4" d="M319.88,94.92a.62.62,0,0,1-.67.64.63.63,0,0,1-.64-.64.64.64,0,0,1,.66-.66A.62.62,0,0,1,319.88,94.92Zm-1.18,7.43v-5.8h1.06v5.8Z"/><path class="cls-4" d="M321.37,101.27a2.69,2.69,0,0,0,1.39.42c.77,0,1.13-.38,1.13-.86s-.3-.78-1.08-1.07c-1.05-.37-1.54-1-1.54-1.64a1.79,1.79,0,0,1,2-1.71,2.91,2.91,0,0,1,1.43.36l-.26.77a2.32,2.32,0,0,0-1.19-.33c-.62,0-1,.36-1,.79s.35.69,1.1,1c1,.38,1.53.89,1.53,1.75,0,1-.8,1.74-2.18,1.74a3.44,3.44,0,0,1-1.63-.39Z"/><path class="cls-4" d="M327.53,94.88v1.67h1.52v.8h-1.52v3.13c0,.72.21,1.13.8,1.13a2.68,2.68,0,0,0,.61-.07l.05.79a2.73,2.73,0,0,1-.94.14,1.49,1.49,0,0,1-1.14-.44,2.15,2.15,0,0,1-.41-1.51V97.35h-.9v-.8h.9V95.16Z"/><path class="cls-4" d="M330.15,98.84,335.72,96v.83L331,99.15v0l4.69,2.35v.83l-5.57-2.87Z"/><path class="cls-4" d="M336.5,102.83l3.35-8.69h.81l-3.36,8.69Z"/><path class="cls-4" d="M341.5,98.44c0-.74,0-1.34,0-1.89h.94l.05,1h0a2.27,2.27,0,0,1,2.06-1.13c1.4,0,2.46,1.19,2.46,3,0,2.09-1.27,3.12-2.64,3.12a2,2,0,0,1-1.79-.91h0v3.16H341.5Zm1.05,1.55a2,2,0,0,0,.05.43,1.63,1.63,0,0,0,1.58,1.24c1.11,0,1.76-.92,1.76-2.25,0-1.16-.61-2.16-1.73-2.16a1.68,1.68,0,0,0-1.59,1.31,1.55,1.55,0,0,0-.07.43Z"/><path class="cls-4" d="M353.81,99.5l-5.56,2.85v-.83L353,99.17v0l-4.72-2.35V96l5.56,2.86Z"/><path class="cls-4" d="M58.5,127.64l5.57-2.87v.83L59.38,128v0l4.69,2.35v.83l-5.57-2.87Z"/><path class="cls-4" d="M65.74,127.24c0-.74,0-1.34,0-1.89h1l0,1h0a2.27,2.27,0,0,1,2.06-1.13c1.4,0,2.46,1.19,2.46,3,0,2.09-1.27,3.12-2.64,3.12a2,2,0,0,1-1.79-.91h0v3.16h-1Zm1,1.55a2,2,0,0,0,0,.43,1.63,1.63,0,0,0,1.58,1.24c1.12,0,1.76-.92,1.76-2.25,0-1.16-.61-2.16-1.72-2.16a1.7,1.7,0,0,0-1.6,1.31,2,2,0,0,0-.07.43Z"/><path class="cls-4" d="M78.05,128.3l-5.57,2.85v-.83L77.21,128v0l-4.73-2.35v-.83l5.57,2.85Z"/><path class="cls-4" d="M81.29,124H78.83v-.89h6V124H82.34v7.19h-1Z"/><path class="cls-4" d="M85.6,122.64h1.05v3.62h0a1.93,1.93,0,0,1,.75-.75,2.16,2.16,0,0,1,1.08-.3c.78,0,2,.48,2,2.49v3.45H89.48v-3.33c0-.94-.35-1.73-1.34-1.73a1.53,1.53,0,0,0-1.42,1.06,1.23,1.23,0,0,0-.07.5v3.5H85.6Z"/><path class="cls-4" d="M93.43,123.71a.62.62,0,0,1-.67.65.65.65,0,0,1,0-1.3A.62.62,0,0,1,93.43,123.71Zm-1.17,7.44v-5.8h1v5.8Z"/><path class="cls-4" d="M94.92,130.07a2.69,2.69,0,0,0,1.39.42c.77,0,1.13-.38,1.13-.86s-.3-.78-1.08-1.07c-1-.37-1.54-1-1.54-1.64a1.8,1.8,0,0,1,2-1.71,2.9,2.9,0,0,1,1.42.36l-.26.77A2.32,2.32,0,0,0,96.8,126c-.62,0-1,.36-1,.79s.35.69,1.11,1c1,.38,1.52.89,1.52,1.75,0,1-.79,1.74-2.17,1.74a3.38,3.38,0,0,1-1.63-.39Z"/><path class="cls-4" d="M102.36,127.24c0-.74,0-1.34,0-1.89h1l0,1h0a2.28,2.28,0,0,1,2.06-1.13c1.41,0,2.46,1.19,2.46,3,0,2.09-1.27,3.12-2.64,3.12a2,2,0,0,1-1.78-.91h0v3.16h-1Zm1,1.55a2.82,2.82,0,0,0,0,.43,1.63,1.63,0,0,0,1.58,1.24c1.12,0,1.77-.92,1.77-2.25,0-1.16-.61-2.16-1.73-2.16a1.68,1.68,0,0,0-1.59,1.31,1.56,1.56,0,0,0-.08.43Z"/><path class="cls-4" d="M112.4,131.15l-.08-.73h0a2.14,2.14,0,0,1-1.77.86,1.65,1.65,0,0,1-1.78-1.66c0-1.41,1.25-2.18,3.49-2.16v-.12A1.2,1.2,0,0,0,110.9,126a2.84,2.84,0,0,0-1.51.44l-.24-.7a3.64,3.64,0,0,1,1.91-.52c1.77,0,2.21,1.22,2.21,2.38v2.17a8.47,8.47,0,0,0,.09,1.39Zm-.15-3c-1.16,0-2.46.18-2.46,1.31a.93.93,0,0,0,1,1,1.45,1.45,0,0,0,1.41-1,1.36,1.36,0,0,0,.06-.33Z"/><path class="cls-4" d="M120,125.35c0,.42,0,.88,0,1.59v3.37a3.35,3.35,0,0,1-.82,2.65,3.08,3.08,0,0,1-2.11.7,3.73,3.73,0,0,1-1.93-.48l.26-.81a3.25,3.25,0,0,0,1.7.46c1.08,0,1.87-.56,1.87-2v-.64h0a2.07,2.07,0,0,1-1.85,1,2.6,2.6,0,0,1-2.47-2.83,2.8,2.8,0,0,1,2.62-3.09,1.94,1.94,0,0,1,1.81,1h0l0-.87Zm-1.09,2.29a1.44,1.44,0,0,0-.06-.48,1.53,1.53,0,0,0-1.47-1.12c-1,0-1.73.85-1.73,2.2,0,1.14.57,2.08,1.71,2.08a1.54,1.54,0,0,0,1.47-1.08,1.81,1.81,0,0,0,.08-.56Z"/><path class="cls-4" d="M122.27,128.44a1.86,1.86,0,0,0,2,2,4,4,0,0,0,1.61-.3l.18.75a4.72,4.72,0,0,1-1.94.36,2.69,2.69,0,0,1-2.85-2.93c0-1.75,1-3.13,2.72-3.13a2.46,2.46,0,0,1,2.4,2.74,4.88,4.88,0,0,1,0,.49Zm3.09-.76A1.5,1.5,0,0,0,123.9,126a1.74,1.74,0,0,0-1.62,1.71Z"/><path class="cls-4" d="M131.41,123.71a.62.62,0,0,1-.67.65.65.65,0,0,1,0-1.3A.62.62,0,0,1,131.41,123.71Zm-1.17,7.44v-5.8h1v5.8Z"/><path class="cls-4" d="M132.9,130.07a2.69,2.69,0,0,0,1.39.42c.77,0,1.13-.38,1.13-.86s-.3-.78-1.08-1.07c-1-.37-1.54-1-1.54-1.64a1.8,1.8,0,0,1,2-1.71,2.9,2.9,0,0,1,1.42.36l-.26.77a2.32,2.32,0,0,0-1.19-.33c-.62,0-1,.36-1,.79s.35.69,1.1,1c1,.38,1.53.89,1.53,1.75,0,1-.79,1.74-2.17,1.74a3.38,3.38,0,0,1-1.63-.39Z"/><path class="cls-4" d="M140.34,122.64h1.06v8.51h-1.06Z"/><path class="cls-4" d="M148.42,128.2a2.83,2.83,0,0,1-2.89,3.08,2.76,2.76,0,0,1-2.78-3,2.84,2.84,0,0,1,2.88-3.09A2.75,2.75,0,0,1,148.42,128.2Zm-4.6.06c0,1.27.73,2.23,1.76,2.23s1.77-1,1.77-2.25c0-1-.5-2.23-1.74-2.23S143.82,127.16,143.82,128.26Z"/><path class="cls-4" d="M153.9,130.94a4,4,0,0,1-1.67.33,2.76,2.76,0,0,1-2.89-3,2.94,2.94,0,0,1,3.12-3.08,3.44,3.44,0,0,1,1.46.3l-.24.81a2.5,2.5,0,0,0-1.22-.27,2.19,2.19,0,0,0,0,4.36,2.9,2.9,0,0,0,1.3-.29Z"/><path class="cls-4" d="M158.35,131.15l-.08-.73h0a2.15,2.15,0,0,1-1.78.86,1.65,1.65,0,0,1-1.77-1.66c0-1.41,1.25-2.18,3.49-2.16v-.12a1.2,1.2,0,0,0-1.32-1.35,2.84,2.84,0,0,0-1.51.44l-.24-.7a3.61,3.61,0,0,1,1.91-.52c1.77,0,2.2,1.22,2.2,2.38v2.17a8.4,8.4,0,0,0,.1,1.39Zm-.16-3c-1.15,0-2.46.18-2.46,1.31a.93.93,0,0,0,1,1,1.43,1.43,0,0,0,1.4-1,1,1,0,0,0,.06-.33Z"/><path class="cls-4" d="M162.14,123.68v1.67h1.51v.8h-1.51v3.13c0,.72.21,1.13.79,1.13a2.78,2.78,0,0,0,.62-.07l0,.79a2.63,2.63,0,0,1-.93.14,1.49,1.49,0,0,1-1.14-.44,2.15,2.15,0,0,1-.41-1.51v-3.17h-.9v-.8h.9V124Z"/><path class="cls-4" d="M165.36,128.44a1.86,1.86,0,0,0,2,2,4,4,0,0,0,1.61-.3l.18.75a4.71,4.71,0,0,1-1.93.36,2.7,2.7,0,0,1-2.86-2.93c0-1.75,1-3.13,2.72-3.13a2.46,2.46,0,0,1,2.4,2.74,4.88,4.88,0,0,1,0,.49Zm3.09-.76A1.5,1.5,0,0,0,167,126a1.74,1.74,0,0,0-1.62,1.71Z"/><path class="cls-4" d="M175.8,122.64v7c0,.52,0,1.1,0,1.5h-.94l-.05-1h0a2.13,2.13,0,0,1-2,1.14c-1.41,0-2.49-1.18-2.49-2.95,0-1.93,1.19-3.12,2.61-3.12a2,2,0,0,1,1.75.89h0v-3.46Zm-1.06,5.07a1.65,1.65,0,0,0-.05-.44,1.54,1.54,0,0,0-1.52-1.23c-1.09,0-1.74,1-1.74,2.24s.58,2.15,1.72,2.15a1.59,1.59,0,0,0,1.54-1.26,1.64,1.64,0,0,0,.05-.45Z"/><path class="cls-4" d="M183.31,131.15l-.08-.73h0a2.15,2.15,0,0,1-1.78.86,1.65,1.65,0,0,1-1.77-1.66c0-1.41,1.25-2.18,3.49-2.16v-.12a1.2,1.2,0,0,0-1.32-1.35,2.84,2.84,0,0,0-1.51.44l-.24-.7a3.61,3.61,0,0,1,1.91-.52c1.77,0,2.2,1.22,2.2,2.38v2.17a8.4,8.4,0,0,0,.1,1.39Zm-.16-3c-1.15,0-2.46.18-2.46,1.31a.93.93,0,0,0,1,1,1.43,1.43,0,0,0,1.4-1,1,1,0,0,0,.06-.33Z"/><path class="cls-4" d="M187.1,123.68v1.67h1.51v.8H187.1v3.13c0,.72.21,1.13.79,1.13a2.6,2.6,0,0,0,.61-.07l.05.79a2.67,2.67,0,0,1-.93.14,1.49,1.49,0,0,1-1.14-.44,2.15,2.15,0,0,1-.41-1.51v-3.17h-.9v-.8h.9V124Z"/><path class="cls-4" d="M192.26,127.64l5.57-2.87v.83L193.14,128v0l4.69,2.35v.83l-5.57-2.87Z"/><path class="cls-4" d="M203.64,130.94a4,4,0,0,1-1.67.33,2.76,2.76,0,0,1-2.89-3,2.94,2.94,0,0,1,3.12-3.08,3.44,3.44,0,0,1,1.46.3l-.24.81a2.5,2.5,0,0,0-1.22-.27,2.19,2.19,0,0,0,0,4.36,2.9,2.9,0,0,0,1.3-.29Z"/><path class="cls-4" d="M210.05,128.2a2.83,2.83,0,0,1-2.89,3.08,2.76,2.76,0,0,1-2.78-3,2.84,2.84,0,0,1,2.88-3.09A2.75,2.75,0,0,1,210.05,128.2Zm-4.6.06c0,1.27.73,2.23,1.76,2.23s1.77-1,1.77-2.25c0-1-.5-2.23-1.74-2.23S205.45,127.16,205.45,128.26Z"/><path class="cls-4" d="M216.4,122.64v7c0,.52,0,1.1,0,1.5h-.95l0-1h0a2.14,2.14,0,0,1-2,1.14c-1.4,0-2.48-1.18-2.48-2.95,0-1.93,1.19-3.12,2.6-3.12a1.93,1.93,0,0,1,1.75.89h0v-3.46Zm-1.05,5.07a1.65,1.65,0,0,0,0-.44,1.55,1.55,0,0,0-1.52-1.23c-1.09,0-1.74,1-1.74,2.24s.57,2.15,1.71,2.15a1.59,1.59,0,0,0,1.55-1.26,1.64,1.64,0,0,0,0-.45Z"/><path class="cls-4" d="M218.75,128.44a1.86,1.86,0,0,0,2,2,3.91,3.91,0,0,0,1.6-.3l.18.75a4.63,4.63,0,0,1-1.93.36,2.69,2.69,0,0,1-2.85-2.93c0-1.75,1-3.13,2.72-3.13a2.46,2.46,0,0,1,2.4,2.74,4.35,4.35,0,0,1,0,.49Zm3.09-.76a1.5,1.5,0,0,0-1.46-1.71,1.74,1.74,0,0,0-1.62,1.71Z"/><path class="cls-4" d="M229.65,128.3l-5.56,2.85v-.83l4.72-2.35v0l-4.72-2.35v-.83l5.56,2.85Z"/><path class="cls-4" d="M231.73,125.35l1.14,3.26c.19.53.35,1,.47,1.49h0c.13-.48.3-1,.49-1.49l1.13-3.26h1.1l-2.27,5.8h-1l-2.21-5.8Z"/><path class="cls-4" d="M238.27,123.71a.62.62,0,0,1-.67.65.65.65,0,0,1,0-1.3A.62.62,0,0,1,238.27,123.71Zm-1.18,7.44v-5.8h1.06v5.8Z"/><path class="cls-4" d="M240.49,128.44a1.86,1.86,0,0,0,2,2,4,4,0,0,0,1.61-.3l.18.75a4.67,4.67,0,0,1-1.93.36,2.7,2.7,0,0,1-2.86-2.93c0-1.75,1-3.13,2.72-3.13a2.46,2.46,0,0,1,2.4,2.74,4.88,4.88,0,0,1,0,.49Zm3.09-.76a1.49,1.49,0,0,0-1.46-1.71,1.74,1.74,0,0,0-1.62,1.71Z"/><path class="cls-4" d="M246.33,125.35l.77,3c.17.64.32,1.24.43,1.84h0c.13-.58.32-1.21.51-1.83l.95-3h.89l.9,2.9c.21.69.38,1.31.51,1.89h0a19.14,19.14,0,0,1,.44-1.88l.83-2.91h1.05l-1.88,5.8h-1l-.88-2.77a19.11,19.11,0,0,1-.52-1.91h0a19,19,0,0,1-.53,1.92l-.94,2.76h-1l-1.75-5.8Z"/><path class="cls-4" d="M254.53,130.07a2.69,2.69,0,0,0,1.39.42c.77,0,1.13-.38,1.13-.86s-.3-.78-1.08-1.07c-1-.37-1.54-1-1.54-1.64a1.8,1.8,0,0,1,2-1.71,2.9,2.9,0,0,1,1.42.36l-.26.77a2.32,2.32,0,0,0-1.19-.33c-.62,0-1,.36-1,.79s.35.69,1.1,1c1,.38,1.53.89,1.53,1.75,0,1-.79,1.74-2.17,1.74a3.38,3.38,0,0,1-1.63-.39Z"/><path class="cls-4" d="M258.54,131.63l3.34-8.69h.82l-3.36,8.69Z"/><path class="cls-4" d="M264.72,123.71a.63.63,0,0,1-.68.65.63.63,0,0,1-.63-.65.64.64,0,0,1,.66-.65A.62.62,0,0,1,264.72,123.71Zm-1.18,7.44v-5.8h1.06v5.8Z"/><path class="cls-4" d="M266.35,126.92c0-.6,0-1.09-.05-1.57h.94l.06,1h0a2.13,2.13,0,0,1,1.92-1.1c.8,0,2.05.48,2.05,2.47v3.47h-1.06V127.8c0-.93-.34-1.71-1.34-1.71a1.5,1.5,0,0,0-1.41,1.08,1.44,1.44,0,0,0-.08.49v3.49h-1Z"/><path class="cls-4" d="M278,122.64v7c0,.52,0,1.1.05,1.5h-.95l-.05-1h0a2.14,2.14,0,0,1-2,1.14c-1.4,0-2.48-1.18-2.48-2.95,0-1.93,1.19-3.12,2.6-3.12a1.93,1.93,0,0,1,1.75.89h0v-3.46Zm-1,5.07a2.2,2.2,0,0,0-.05-.44A1.55,1.55,0,0,0,275.4,126c-1.1,0-1.74,1-1.74,2.24s.57,2.15,1.71,2.15a1.59,1.59,0,0,0,1.55-1.26,2.14,2.14,0,0,0,.05-.45Z"/><path class="cls-4" d="M280.36,128.44a1.87,1.87,0,0,0,2,2,3.91,3.91,0,0,0,1.6-.3l.18.75a4.63,4.63,0,0,1-1.93.36,2.69,2.69,0,0,1-2.85-2.93c0-1.75,1-3.13,2.72-3.13a2.47,2.47,0,0,1,2.4,2.74,4.35,4.35,0,0,1,0,.49Zm3.1-.76A1.5,1.5,0,0,0,282,126a1.74,1.74,0,0,0-1.62,1.71Z"/><path class="cls-4" d="M286.24,125.35l.83,1.24c.22.33.4.63.59,1h0c.19-.35.38-.65.57-1l.82-1.23h1.14l-2,2.8,2,3h-1.2l-.85-1.31c-.23-.33-.42-.66-.63-1h0c-.19.34-.4.66-.61,1l-.84,1.31H285l2.07-3-2-2.84Z"/><path class="cls-4" d="M290.42,131.63l3.35-8.69h.81l-3.35,8.69Z"/><path class="cls-4" d="M296.6,123.71a.62.62,0,0,1-.67.65.65.65,0,0,1,0-1.3A.62.62,0,0,1,296.6,123.71Zm-1.17,7.44v-5.8h1.05v5.8Z"/><path class="cls-4" d="M298.23,126.92c0-.6,0-1.09-.05-1.57h.94l.06,1h0a2.13,2.13,0,0,1,1.92-1.1c.81,0,2.05.48,2.05,2.47v3.47h-1.05V127.8c0-.93-.35-1.71-1.35-1.71a1.5,1.5,0,0,0-1.41,1.08,1.45,1.45,0,0,0-.07.49v3.49h-1.06Z"/><path class="cls-4" d="M309.91,122.64v7c0,.52,0,1.1,0,1.5H309l-.05-1h0a2.13,2.13,0,0,1-2,1.14c-1.41,0-2.49-1.18-2.49-2.95,0-1.93,1.19-3.12,2.61-3.12a2,2,0,0,1,1.75.89h0v-3.46Zm-1.06,5.07a1.65,1.65,0,0,0-.05-.44,1.54,1.54,0,0,0-1.52-1.23c-1.09,0-1.74,1-1.74,2.24s.58,2.15,1.72,2.15a1.59,1.59,0,0,0,1.54-1.26,1.64,1.64,0,0,0,.05-.45Z"/><path class="cls-4" d="M312.25,128.44a1.86,1.86,0,0,0,2,2,4,4,0,0,0,1.61-.3l.18.75a4.71,4.71,0,0,1-1.93.36,2.7,2.7,0,0,1-2.86-2.93c0-1.75,1-3.13,2.72-3.13a2.46,2.46,0,0,1,2.4,2.74,4.88,4.88,0,0,1,0,.49Zm3.09-.76a1.5,1.5,0,0,0-1.46-1.71,1.74,1.74,0,0,0-1.62,1.71Z"/><path class="cls-4" d="M318.13,125.35l.82,1.24c.22.33.4.63.59,1h0c.19-.35.38-.65.57-1l.82-1.23h1.14l-2,2.8,2,3H321l-.85-1.31c-.23-.33-.42-.66-.63-1h0c-.19.34-.4.66-.61,1l-.84,1.31h-1.16l2.06-3-2-2.84Z"/><path class="cls-4" d="M322.94,130.53a.71.71,0,0,1,.72-.76.76.76,0,1,1-.72.76Z"/><path class="cls-4" d="M326.08,125.35l1.14,3.26c.19.53.35,1,.47,1.49h0c.13-.48.3-1,.49-1.49l1.13-3.26h1.1l-2.28,5.8h-1l-2.2-5.8Z"/><path class="cls-4" d="M336.58,128.2a2.83,2.83,0,0,1-2.89,3.08,2.76,2.76,0,0,1-2.78-3,2.84,2.84,0,0,1,2.88-3.09A2.76,2.76,0,0,1,336.58,128.2Zm-4.6.06c0,1.27.73,2.23,1.76,2.23s1.76-1,1.76-2.25c0-1-.49-2.23-1.74-2.23S332,127.16,332,128.26Z"/><path class="cls-4" d="M337.92,122.64H339v8.51h-1.05Z"/><path class="cls-4" d="M342,123.68v1.67h1.51v.8H342v3.13c0,.72.2,1.13.79,1.13a2.6,2.6,0,0,0,.61-.07l.05.79a2.69,2.69,0,0,1-.94.14,1.47,1.47,0,0,1-1.13-.44,2.15,2.15,0,0,1-.41-1.51v-3.17h-.9v-.8h.9V124Z"/><path class="cls-4" d="M344.63,127.64l5.57-2.87v.83L345.51,128v0l4.69,2.35v.83l-5.57-2.87Z"/><path class="cls-4" d="M351,131.63l3.35-8.69h.81l-3.35,8.69Z"/><path class="cls-4" d="M360.13,130.94a4,4,0,0,1-1.67.33,2.76,2.76,0,0,1-2.89-3,2.94,2.94,0,0,1,3.12-3.08,3.44,3.44,0,0,1,1.46.3l-.24.81a2.5,2.5,0,0,0-1.22-.27,2.19,2.19,0,0,0,0,4.36,2.82,2.82,0,0,0,1.29-.29Z"/><path class="cls-4" d="M366.54,128.2a2.83,2.83,0,0,1-2.89,3.08,2.76,2.76,0,0,1-2.78-3,2.84,2.84,0,0,1,2.88-3.09A2.75,2.75,0,0,1,366.54,128.2Zm-4.6.06c0,1.27.73,2.23,1.76,2.23s1.76-1,1.76-2.25c0-1-.49-2.23-1.73-2.23S361.94,127.16,361.94,128.26Z"/><path class="cls-4" d="M372.89,122.64v7c0,.52,0,1.1.05,1.5H372l-.05-1h0a2.14,2.14,0,0,1-2,1.14c-1.4,0-2.48-1.18-2.48-2.95,0-1.93,1.19-3.12,2.6-3.12a1.93,1.93,0,0,1,1.75.89h0v-3.46Zm-1.05,5.07a2.2,2.2,0,0,0,0-.44,1.55,1.55,0,0,0-1.52-1.23c-1.1,0-1.74,1-1.74,2.24s.57,2.15,1.71,2.15a1.59,1.59,0,0,0,1.55-1.26,2.14,2.14,0,0,0,0-.45Z"/><path class="cls-4" d="M375.23,128.44a1.87,1.87,0,0,0,2,2,3.91,3.91,0,0,0,1.6-.3l.18.75a4.67,4.67,0,0,1-1.93.36,2.69,2.69,0,0,1-2.85-2.93c0-1.75,1-3.13,2.72-3.13a2.47,2.47,0,0,1,2.4,2.74,4.35,4.35,0,0,1,0,.49Zm3.1-.76a1.5,1.5,0,0,0-1.46-1.71,1.74,1.74,0,0,0-1.62,1.71Z"/><path class="cls-4" d="M386.14,128.3l-5.57,2.85v-.83L385.3,128v0l-4.73-2.35v-.83l5.57,2.85Z"/><path class="cls-4" d="M387.73,127.64l5.56-2.87v.83L388.6,128v0l4.69,2.35v.83l-5.56-2.87Z"/><path class="cls-4" d="M394.08,131.63l3.34-8.69h.82l-3.36,8.69Z"/><path class="cls-4" d="M399.08,127.24c0-.74,0-1.34-.05-1.89h1l0,1h0a2.28,2.28,0,0,1,2.06-1.13c1.41,0,2.46,1.19,2.46,3,0,2.09-1.27,3.12-2.64,3.12a2,2,0,0,1-1.78-.91h0v3.16h-1Zm1,1.55a2.82,2.82,0,0,0,.05.43,1.63,1.63,0,0,0,1.58,1.24c1.12,0,1.77-.92,1.77-2.25,0-1.16-.62-2.16-1.73-2.16a1.7,1.7,0,0,0-1.6,1.31,2,2,0,0,0-.07.43Z"/><path class="cls-4" d="M411.39,128.3l-5.57,2.85v-.83l4.73-2.35v0l-4.73-2.35v-.83l5.57,2.85Z"/><path class="cls-4" d="M58.5,156.44l5.57-2.87v.83l-4.69,2.35v0l4.69,2.35V160l-5.57-2.87Z"/><path class="cls-4" d="M70.75,151.44v7c0,.52,0,1.1,0,1.5h-1l0-1h0a2.15,2.15,0,0,1-2,1.14c-1.4,0-2.48-1.18-2.48-3,0-1.93,1.18-3.12,2.6-3.12a1.93,1.93,0,0,1,1.75.89h0v-3.46Zm-1.06,5.07a2.35,2.35,0,0,0,0-.45,1.56,1.56,0,0,0-1.53-1.22c-1.09,0-1.74,1-1.74,2.24s.58,2.15,1.72,2.15A1.6,1.6,0,0,0,69.65,158a2.15,2.15,0,0,0,0-.45Z"/><path class="cls-4" d="M73.68,152.51a.62.62,0,0,1-.67.65.63.63,0,0,1-.64-.65.65.65,0,0,1,.66-.66A.63.63,0,0,1,73.68,152.51ZM72.5,160v-5.8h1.06V160Z"/><path class="cls-4" d="M75.72,154.15l1.14,3.26c.19.53.35,1,.47,1.49h0c.14-.48.3-1,.5-1.49L79,154.15h1.11L77.81,160h-1l-2.21-5.8Z"/><path class="cls-4" d="M87.77,159.73a3.81,3.81,0,0,1-1.67.34,2.76,2.76,0,0,1-2.89-3A2.94,2.94,0,0,1,86.33,154a3.44,3.44,0,0,1,1.46.3l-.24.81a2.5,2.5,0,0,0-1.22-.27,2.19,2.19,0,0,0,0,4.36,2.9,2.9,0,0,0,1.3-.29Z"/><path class="cls-4" d="M89,151.44h1.06V160H89Z"/><path class="cls-4" d="M95.05,160l-.08-.73h0a2.17,2.17,0,0,1-1.77.86,1.66,1.66,0,0,1-1.78-1.66c0-1.41,1.25-2.18,3.49-2.16v-.12a1.2,1.2,0,0,0-1.32-1.35,2.84,2.84,0,0,0-1.51.44l-.24-.7a3.64,3.64,0,0,1,1.91-.52c1.77,0,2.2,1.22,2.2,2.38v2.17A8.4,8.4,0,0,0,96,160Zm-.15-3c-1.16,0-2.46.18-2.46,1.31a.93.93,0,0,0,1,1,1.45,1.45,0,0,0,1.41-1,1.36,1.36,0,0,0,.06-.33Z"/><path class="cls-4" d="M97.48,158.87a2.69,2.69,0,0,0,1.39.42c.77,0,1.13-.38,1.13-.86s-.3-.78-1.08-1.07c-1-.37-1.54-1-1.54-1.64a1.79,1.79,0,0,1,2-1.71,2.91,2.91,0,0,1,1.43.36l-.26.77a2.32,2.32,0,0,0-1.19-.33c-.62,0-1,.36-1,.79s.35.69,1.1,1c1,.38,1.53.89,1.53,1.75,0,1-.8,1.74-2.18,1.74a3.33,3.33,0,0,1-1.63-.4Z"/><path class="cls-4" d="M102.23,158.87a2.69,2.69,0,0,0,1.39.42c.77,0,1.13-.38,1.13-.86s-.3-.78-1.08-1.07c-1-.37-1.54-1-1.54-1.64a1.8,1.8,0,0,1,2-1.71,2.9,2.9,0,0,1,1.42.36l-.26.77a2.32,2.32,0,0,0-1.19-.33c-.62,0-1,.36-1,.79s.35.69,1.1,1c1,.38,1.53.89,1.53,1.75,0,1-.79,1.74-2.17,1.74a3.27,3.27,0,0,1-1.63-.4Z"/><path class="cls-4" d="M106.73,155.91v-.72h6.19v.72Zm0,2.35v-.72h6.19v.72Z"/><path class="cls-4" d="M115.06,151.74l-.21,2.87h-.64l-.2-2.87Zm1.78,0-.2,2.87H116l-.2-2.87Z"/><path class="cls-4" d="M122.36,159.73a3.72,3.72,0,0,1-1.66.34,2.76,2.76,0,0,1-2.9-3,3,3,0,0,1,3.12-3.08,3.45,3.45,0,0,1,1.47.3l-.24.81a2.54,2.54,0,0,0-1.23-.27,2.19,2.19,0,0,0,0,4.36,2.86,2.86,0,0,0,1.29-.29Z"/><path class="cls-4" d="M126.81,160l-.08-.73h0a2.16,2.16,0,0,1-1.77.86,1.65,1.65,0,0,1-1.77-1.66c0-1.41,1.24-2.18,3.48-2.16v-.12a1.2,1.2,0,0,0-1.31-1.35,2.88,2.88,0,0,0-1.52.44l-.24-.7a3.64,3.64,0,0,1,1.91-.52c1.78,0,2.21,1.22,2.21,2.38v2.17a8.47,8.47,0,0,0,.09,1.39Zm-.15-3c-1.15,0-2.46.18-2.46,1.31a.93.93,0,0,0,1,1,1.45,1.45,0,0,0,1.4-1,1.36,1.36,0,0,0,.06-.33Z"/><path class="cls-4" d="M129.38,156c0-.69,0-1.27,0-1.81h.92l0,1.14h0A1.76,1.76,0,0,1,132,154a1.28,1.28,0,0,1,.3,0v1a1.28,1.28,0,0,0-.36,0,1.47,1.47,0,0,0-1.41,1.35,2.57,2.57,0,0,0,0,.5V160h-1.05Z"/><path class="cls-4" d="M133.16,158.87a2.76,2.76,0,0,0,1.4.42c.76,0,1.12-.38,1.12-.86s-.3-.78-1.08-1.07c-1-.37-1.53-1-1.53-1.64a1.79,1.79,0,0,1,2-1.71,2.91,2.91,0,0,1,1.43.36l-.27.77a2.25,2.25,0,0,0-1.18-.33c-.63,0-1,.36-1,.79s.34.69,1.1,1c1,.38,1.52.89,1.52,1.75,0,1-.79,1.74-2.17,1.74a3.33,3.33,0,0,1-1.63-.4Z"/><path class="cls-4" d="M138.84,151.74l-.2,2.87H138l-.19-2.87Zm1.79,0-.21,2.87h-.63l-.21-2.87Z"/><path class="cls-4" d="M147.59,157.1,142,160v-.83l4.73-2.35v0L142,154.4v-.83l5.57,2.85Z"/><path class="cls-4" d="M94.5,170.84l5.57-2.87v.83l-4.69,2.35v0l4.69,2.35v.83l-5.57-2.87Z"/><path class="cls-4" d="M106.75,165.84v7c0,.52,0,1.11,0,1.5h-1l0-1h0a2.15,2.15,0,0,1-2,1.14c-1.4,0-2.48-1.18-2.48-2.95,0-1.93,1.18-3.12,2.6-3.12a1.93,1.93,0,0,1,1.75.89h0v-3.46Zm-1.06,5.07a2.18,2.18,0,0,0,0-.44,1.55,1.55,0,0,0-1.53-1.23c-1.09,0-1.74,1-1.74,2.24s.58,2.15,1.72,2.15a1.6,1.6,0,0,0,1.55-1.26,2.15,2.15,0,0,0,0-.45Z"/><path class="cls-4" d="M111.72,174.35l-.08-.73h0a2.15,2.15,0,0,1-1.78.86,1.65,1.65,0,0,1-1.77-1.66c0-1.41,1.25-2.17,3.49-2.16v-.12a1.2,1.2,0,0,0-1.32-1.35,2.84,2.84,0,0,0-1.51.44l-.24-.7a3.61,3.61,0,0,1,1.91-.52c1.77,0,2.2,1.22,2.2,2.38V173a8.32,8.32,0,0,0,.1,1.39Zm-.16-3c-1.15,0-2.46.18-2.46,1.31a.93.93,0,0,0,1,1,1.43,1.43,0,0,0,1.4-1,1,1,0,0,0,.06-.33Z"/><path class="cls-4" d="M114.15,173.27a2.69,2.69,0,0,0,1.39.42c.76,0,1.12-.38,1.12-.86s-.3-.78-1.08-1.07c-1-.37-1.53-.95-1.53-1.64a1.79,1.79,0,0,1,2-1.71,2.91,2.91,0,0,1,1.43.36l-.26.77a2.32,2.32,0,0,0-1.19-.33c-.63,0-1,.36-1,.79s.34.69,1.1,1c1,.38,1.52.89,1.52,1.75,0,1-.79,1.74-2.17,1.74a3.44,3.44,0,0,1-1.63-.39Z"/><path class="cls-4" d="M119,165.84h1.06v3.62h0a2,2,0,0,1,.76-.75,2.16,2.16,0,0,1,1.08-.3c.77,0,2,.48,2,2.49v3.45h-1V171c0-.94-.35-1.73-1.35-1.73a1.51,1.51,0,0,0-1.41,1.06,1.26,1.26,0,0,0-.07.5v3.5H119Z"/><path class="cls-4" d="M125.65,174.35c0-.39,0-1,0-1.5v-7h1v3.64h0a2.15,2.15,0,0,1,2-1.07c1.44,0,2.46,1.2,2.44,3,0,2.07-1.3,3.1-2.6,3.1a2.06,2.06,0,0,1-1.94-1.09h0l0,1Zm1.09-2.33a2.3,2.3,0,0,0,.05.39,1.64,1.64,0,0,0,1.59,1.23c1.1,0,1.76-.9,1.76-2.23,0-1.16-.6-2.16-1.73-2.16a1.7,1.7,0,0,0-1.61,1.3,2.34,2.34,0,0,0-.06.43Z"/><path class="cls-4" d="M137.78,171.4a2.83,2.83,0,0,1-2.89,3.08,2.76,2.76,0,0,1-2.78-3,2.84,2.84,0,0,1,2.88-3.09A2.76,2.76,0,0,1,137.78,171.4Zm-4.6.06c0,1.27.73,2.23,1.76,2.23s1.76-.95,1.76-2.25c0-1-.49-2.23-1.74-2.23S133.18,170.36,133.18,171.46Z"/><path class="cls-4" d="M142.33,174.35l-.08-.73h0a2.14,2.14,0,0,1-1.77.86,1.65,1.65,0,0,1-1.78-1.66c0-1.41,1.25-2.17,3.49-2.16v-.12a1.2,1.2,0,0,0-1.32-1.35,2.84,2.84,0,0,0-1.51.44l-.24-.7a3.64,3.64,0,0,1,1.91-.52c1.77,0,2.2,1.22,2.2,2.38V173a8.32,8.32,0,0,0,.1,1.39Zm-.15-3c-1.16,0-2.46.18-2.46,1.31a.93.93,0,0,0,1,1,1.45,1.45,0,0,0,1.41-1,1.36,1.36,0,0,0,.06-.33Z"/><path class="cls-4" d="M144.9,170.36c0-.69,0-1.27-.05-1.81h.93l0,1.14h.05a1.75,1.75,0,0,1,1.61-1.28,1.36,1.36,0,0,1,.3,0v1a1.32,1.32,0,0,0-.36,0,1.48,1.48,0,0,0-1.42,1.36,3.37,3.37,0,0,0-.05.49v3.09h-1Z"/><path class="cls-4" d="M153.72,165.84v7c0,.52,0,1.11.05,1.5h-1l0-1h0a2.16,2.16,0,0,1-2,1.14c-1.41,0-2.49-1.18-2.49-2.95,0-1.93,1.19-3.12,2.61-3.12a2,2,0,0,1,1.75.89h0v-3.46Zm-1.06,5.07a1.65,1.65,0,0,0,0-.44,1.54,1.54,0,0,0-1.52-1.23c-1.09,0-1.74,1-1.74,2.24s.58,2.15,1.72,2.15a1.59,1.59,0,0,0,1.54-1.26,1.64,1.64,0,0,0,0-.45Z"/><path class="cls-4" d="M161,171.5l-5.56,2.85v-.83l4.72-2.35v0l-4.72-2.35V168l5.56,2.86Z"/><path class="cls-4" d="M162.54,170.84,168.1,168v.83l-4.68,2.35v0l4.68,2.35v.83l-5.56-2.87Z"/><path class="cls-4" d="M168.89,174.83l3.34-8.69h.82l-3.36,8.69Z"/><path class="cls-4" d="M178.9,165.84v7c0,.52,0,1.11,0,1.5H178l0-1h0a2.14,2.14,0,0,1-2,1.14c-1.4,0-2.48-1.18-2.48-2.95,0-1.93,1.19-3.12,2.6-3.12a2,2,0,0,1,1.76.89h0v-3.46Zm-1.05,5.07a1.65,1.65,0,0,0,0-.44,1.54,1.54,0,0,0-1.52-1.23c-1.09,0-1.74,1-1.74,2.24s.57,2.15,1.71,2.15a1.59,1.59,0,0,0,1.55-1.26,1.64,1.64,0,0,0,0-.45Z"/><path class="cls-4" d="M183.87,174.35l-.08-.73h0a2.13,2.13,0,0,1-1.77.86,1.65,1.65,0,0,1-1.78-1.66c0-1.41,1.25-2.17,3.49-2.16v-.12a1.2,1.2,0,0,0-1.32-1.35,2.84,2.84,0,0,0-1.51.44l-.24-.7a3.64,3.64,0,0,1,1.91-.52c1.78,0,2.21,1.22,2.21,2.38V173a8.39,8.39,0,0,0,.09,1.39Zm-.15-3c-1.15,0-2.46.18-2.46,1.31a.93.93,0,0,0,1,1,1.45,1.45,0,0,0,1.41-1,1.36,1.36,0,0,0,.06-.33Z"/><path class="cls-4" d="M186.3,173.27a2.69,2.69,0,0,0,1.39.42c.77,0,1.13-.38,1.13-.86s-.3-.78-1.08-1.07c-1-.37-1.54-.95-1.54-1.64a1.8,1.8,0,0,1,2-1.71,2.9,2.9,0,0,1,1.42.36l-.26.77a2.32,2.32,0,0,0-1.19-.33c-.62,0-1,.36-1,.79s.35.69,1.1,1c1,.38,1.53.89,1.53,1.75,0,1-.79,1.74-2.17,1.74a3.38,3.38,0,0,1-1.63-.39Z"/><path class="cls-4" d="M191.2,165.84h1.05v3.62h0a2,2,0,0,1,.76-.75,2.16,2.16,0,0,1,1.08-.3c.78,0,2,.48,2,2.49v3.45h-1.06V171c0-.94-.35-1.73-1.34-1.73a1.51,1.51,0,0,0-1.42,1.06,1.26,1.26,0,0,0-.07.5v3.5H191.2Z"/><path class="cls-4" d="M197.81,174.35c0-.39.05-1,.05-1.5v-7h1v3.64h0a2.17,2.17,0,0,1,2-1.07c1.44,0,2.46,1.2,2.45,3,0,2.07-1.31,3.1-2.6,3.1a2.07,2.07,0,0,1-1.95-1.09h0l-.05,1ZM198.9,172a1.6,1.6,0,0,0,0,.39,1.62,1.62,0,0,0,1.58,1.23c1.1,0,1.76-.9,1.76-2.23,0-1.16-.6-2.16-1.72-2.16a1.69,1.69,0,0,0-1.61,1.3,2.34,2.34,0,0,0-.06.43Z"/><path class="cls-4" d="M209.94,171.4a2.83,2.83,0,0,1-2.89,3.08,2.76,2.76,0,0,1-2.79-3,2.84,2.84,0,0,1,2.88-3.09A2.76,2.76,0,0,1,209.94,171.4Zm-4.61.06c0,1.27.73,2.23,1.76,2.23s1.77-.95,1.77-2.25c0-1-.49-2.23-1.74-2.23S205.33,170.36,205.33,171.46Z"/><path class="cls-4" d="M214.49,174.35l-.09-.73h0a2.16,2.16,0,0,1-1.78.86,1.65,1.65,0,0,1-1.77-1.66c0-1.41,1.24-2.17,3.49-2.16v-.12a1.21,1.21,0,0,0-1.32-1.35,2.82,2.82,0,0,0-1.51.44l-.25-.7a3.64,3.64,0,0,1,1.91-.52c1.78,0,2.21,1.22,2.21,2.38V173a8.39,8.39,0,0,0,.09,1.39Zm-.16-3c-1.15,0-2.46.18-2.46,1.31a.93.93,0,0,0,1,1,1.45,1.45,0,0,0,1.4-1,1,1,0,0,0,.06-.33Z"/><path class="cls-4" d="M217.05,170.36c0-.69,0-1.27,0-1.81h.92l0,1.14h0a1.76,1.76,0,0,1,1.61-1.28,1.28,1.28,0,0,1,.3,0v1a1.28,1.28,0,0,0-.36,0,1.47,1.47,0,0,0-1.41,1.36,2.38,2.38,0,0,0-.05.49v3.09h-1Z"/><path class="cls-4" d="M225.87,165.84v7c0,.52,0,1.11,0,1.5H225l-.05-1h0a2.14,2.14,0,0,1-2,1.14c-1.4,0-2.48-1.18-2.48-2.95,0-1.93,1.19-3.12,2.6-3.12a1.93,1.93,0,0,1,1.75.89h0v-3.46Zm-1.05,5.07a2.2,2.2,0,0,0,0-.44,1.55,1.55,0,0,0-1.52-1.23c-1.1,0-1.74,1-1.74,2.24s.57,2.15,1.71,2.15a1.59,1.59,0,0,0,1.55-1.26,2.14,2.14,0,0,0,0-.45Z"/><path class="cls-4" d="M233.11,171.5l-5.57,2.85v-.83l4.73-2.35v0l-4.73-2.35V168l5.57,2.86Z"/><path class="cls-4" d="M58.5,185.24l5.57-2.87v.83l-4.69,2.35v0l4.69,2.35v.83l-5.57-2.87Z"/><path class="cls-4" d="M64.85,189.23l3.35-8.69H69l-3.36,8.69Z"/><path class="cls-4" d="M74.87,180.24v7c0,.52,0,1.1,0,1.5H74l0-1h0a2.13,2.13,0,0,1-2,1.14c-1.41,0-2.49-1.18-2.49-2.95,0-1.93,1.19-3.12,2.61-3.12a2,2,0,0,1,1.75.89h0v-3.46Zm-1.06,5.07a1.65,1.65,0,0,0,0-.44,1.54,1.54,0,0,0-1.52-1.23c-1.09,0-1.74,1-1.74,2.24s.58,2.15,1.72,2.15a1.59,1.59,0,0,0,1.54-1.26,1.64,1.64,0,0,0,0-.45Z"/><path class="cls-4" d="M77.8,181.31a.63.63,0,0,1-.68.65.63.63,0,0,1-.63-.65.63.63,0,0,1,.66-.65A.62.62,0,0,1,77.8,181.31Zm-1.18,7.44V183h1.06v5.8Z"/><path class="cls-4" d="M79.84,183,81,186.21a15.54,15.54,0,0,1,.46,1.49h0c.13-.48.3-1,.49-1.49L83.1,183h1.1l-2.28,5.8h-1L78.71,183Z"/><path class="cls-4" d="M90.68,185.9l-5.56,2.85v-.83l4.72-2.35v0l-4.72-2.35v-.83l5.56,2.86Z"/><path class="cls-4" d="M58.5,228.44l5.57-2.87v.83l-4.69,2.35v0l4.69,2.35V232l-5.57-2.87Z"/><path class="cls-4" d="M65.59,230.87a2.72,2.72,0,0,0,1.39.42c.77,0,1.13-.38,1.13-.86s-.3-.78-1.08-1.07c-1-.37-1.53-1-1.53-1.64a1.79,1.79,0,0,1,2-1.71,2.94,2.94,0,0,1,1.43.36l-.27.77a2.25,2.25,0,0,0-1.18-.33c-.63,0-1,.36-1,.79s.35.69,1.11,1c1,.38,1.52.89,1.52,1.75,0,1-.79,1.74-2.17,1.74a3.3,3.3,0,0,1-1.63-.4Z"/><path class="cls-4" d="M74.63,231.73a3.81,3.81,0,0,1-1.67.34,2.76,2.76,0,0,1-2.89-3A2.94,2.94,0,0,1,73.19,226a3.44,3.44,0,0,1,1.46.3l-.24.81a2.5,2.5,0,0,0-1.22-.27,2.19,2.19,0,0,0,0,4.36,2.9,2.9,0,0,0,1.3-.29Z"/><path class="cls-4" d="M75.86,228c0-.69,0-1.27,0-1.81h.92l0,1.14h0A1.76,1.76,0,0,1,78.43,226a1.28,1.28,0,0,1,.3,0v1a1.28,1.28,0,0,0-.36,0A1.47,1.47,0,0,0,77,228.36a2.57,2.57,0,0,0,0,.5V232h-1Z"/><path class="cls-4" d="M81,224.51a.62.62,0,0,1-.67.65.63.63,0,0,1-.64-.65.65.65,0,0,1,.66-.66A.63.63,0,0,1,81,224.51ZM79.84,232v-5.8h1V232Z"/><path class="cls-4" d="M82.64,228c0-.74,0-1.34,0-1.89h.94l0,1h0A2.27,2.27,0,0,1,85.68,226c1.4,0,2.46,1.19,2.46,3,0,2.09-1.27,3.12-2.64,3.12a2,2,0,0,1-1.79-.91h0v3.16h-1Zm1,1.55a2,2,0,0,0,0,.43,1.62,1.62,0,0,0,1.58,1.23c1.11,0,1.76-.91,1.76-2.24,0-1.16-.61-2.16-1.73-2.16a1.69,1.69,0,0,0-1.59,1.31,1.55,1.55,0,0,0-.07.43Z"/><path class="cls-4" d="M90.74,224.48v1.67h1.51v.8H90.74v3.13c0,.72.21,1.13.8,1.13a2.76,2.76,0,0,0,.61-.07l0,.79a2.63,2.63,0,0,1-.93.14,1.49,1.49,0,0,1-1.14-.44,2.17,2.17,0,0,1-.41-1.51V227h-.9v-.8h.9v-1.4Z"/><path class="cls-4" d="M95.84,230.87a2.76,2.76,0,0,0,1.4.42c.76,0,1.12-.38,1.12-.86s-.3-.78-1.08-1.07c-1-.37-1.53-1-1.53-1.64a1.79,1.79,0,0,1,2-1.71,2.94,2.94,0,0,1,1.43.36l-.27.77a2.25,2.25,0,0,0-1.18-.33c-.63,0-1,.36-1,.79s.34.69,1.1,1c1,.38,1.52.89,1.52,1.75,0,1-.79,1.74-2.17,1.74a3.33,3.33,0,0,1-1.63-.4Z"/><path class="cls-4" d="M100.74,228c0-.69,0-1.27,0-1.81h.93l0,1.14h0a1.75,1.75,0,0,1,1.61-1.28,1.36,1.36,0,0,1,.3,0v1a1.32,1.32,0,0,0-.36,0,1.48,1.48,0,0,0-1.42,1.35,3.68,3.68,0,0,0,0,.5V232h-1Z"/><path class="cls-4" d="M108.68,231.73a3.76,3.76,0,0,1-1.66.34,2.76,2.76,0,0,1-2.9-3,3,3,0,0,1,3.12-3.08,3.45,3.45,0,0,1,1.47.3l-.24.81a2.54,2.54,0,0,0-1.23-.27,2.19,2.19,0,0,0,0,4.36,2.86,2.86,0,0,0,1.29-.29Z"/><path class="cls-4" d="M109.52,227.91v-.72h6.19v.72Zm0,2.35v-.72h6.19v.72Z"/><path class="cls-4" d="M117.85,223.74l-.2,2.87H117l-.19-2.87Zm1.79,0-.2,2.87h-.64l-.2-2.87Z"/><path class="cls-4" d="M120.23,232.43l3.34-8.69h.82L121,232.43Z"/><path class="cls-4" d="M125.18,232c0-.4,0-1,0-1.5v-7h1v3.64h0a2.15,2.15,0,0,1,2-1.07c1.44,0,2.46,1.2,2.45,3,0,2.07-1.31,3.1-2.61,3.1a2.06,2.06,0,0,1-1.94-1.09h0l0,1Zm1.1-2.33a2.34,2.34,0,0,0,0,.39,1.64,1.64,0,0,0,1.59,1.23c1.1,0,1.76-.9,1.76-2.23,0-1.16-.6-2.16-1.73-2.16a1.68,1.68,0,0,0-1.6,1.3,1.71,1.71,0,0,0-.06.43Z"/><path class="cls-4" d="M136.92,230.37c0,.6,0,1.13,0,1.58H136L136,231h0a2.19,2.19,0,0,1-1.92,1.08c-.91,0-2-.5-2-2.54v-3.39h1.06v3.21c0,1.1.34,1.85,1.29,1.85a1.54,1.54,0,0,0,1.4-1,1.57,1.57,0,0,0,.09-.54v-3.56h1.06Z"/><path class="cls-4" d="M139.85,224.51a.66.66,0,0,1-1.31,0,.65.65,0,0,1,.66-.66A.63.63,0,0,1,139.85,224.51ZM138.67,232v-5.8h1.06V232Z"/><path class="cls-4" d="M141.48,223.44h1.06V232h-1.06Z"/><path class="cls-4" d="M149.32,223.44v7c0,.52,0,1.1.05,1.5h-.94l-.05-1h0a2.14,2.14,0,0,1-2,1.14c-1.4,0-2.48-1.18-2.48-3,0-1.93,1.19-3.12,2.6-3.12a2,2,0,0,1,1.76.89h0v-3.46Zm-1,5.07a1.77,1.77,0,0,0-.05-.45,1.54,1.54,0,0,0-1.52-1.22c-1.09,0-1.74,1-1.74,2.24s.57,2.15,1.71,2.15a1.59,1.59,0,0,0,1.55-1.26,1.64,1.64,0,0,0,.05-.45Z"/><path class="cls-4" d="M150.94,230.87a2.69,2.69,0,0,0,1.39.42c.76,0,1.12-.38,1.12-.86s-.3-.78-1.08-1.07c-1-.37-1.53-1-1.53-1.64a1.79,1.79,0,0,1,2-1.71,2.91,2.91,0,0,1,1.43.36l-.26.77a2.32,2.32,0,0,0-1.19-.33c-.63,0-1,.36-1,.79s.34.69,1.1,1c1,.38,1.52.89,1.52,1.75,0,1-.79,1.74-2.17,1.74a3.33,3.33,0,0,1-1.63-.4Z"/><path class="cls-4" d="M154.94,232.43l3.35-8.69h.82l-3.36,8.69Z"/><path class="cls-4" d="M160,228c0-.74,0-1.34,0-1.89h.95l.05,1h0A2.27,2.27,0,0,1,163,226c1.4,0,2.46,1.19,2.46,3,0,2.09-1.27,3.12-2.64,3.12a2,2,0,0,1-1.79-.91h0v3.16h-1Zm1,1.55a2,2,0,0,0,0,.43,1.63,1.63,0,0,0,1.58,1.23c1.12,0,1.76-.91,1.76-2.24,0-1.16-.61-2.16-1.72-2.16a1.7,1.7,0,0,0-1.6,1.31,2,2,0,0,0-.07.43Z"/><path class="cls-4" d="M166.77,228c0-.69,0-1.27,0-1.81h.92l0,1.14h0a1.76,1.76,0,0,1,1.61-1.28,1.28,1.28,0,0,1,.3,0v1a1.28,1.28,0,0,0-.36,0,1.47,1.47,0,0,0-1.41,1.35,2.57,2.57,0,0,0-.05.5V232h-1Z"/><path class="cls-4" d="M175.83,229a2.83,2.83,0,0,1-2.89,3.08,2.76,2.76,0,0,1-2.78-3A2.84,2.84,0,0,1,173,226,2.76,2.76,0,0,1,175.83,229Zm-4.6.06c0,1.27.73,2.23,1.76,2.23s1.76-.95,1.76-2.25c0-1-.49-2.23-1.74-2.23S171.23,228,171.23,229.06Z"/><path class="cls-4" d="M182.18,223.44v7c0,.52,0,1.1,0,1.5h-.95l-.05-1h0a2.15,2.15,0,0,1-2,1.14c-1.4,0-2.48-1.18-2.48-3,0-1.93,1.18-3.12,2.6-3.12a1.93,1.93,0,0,1,1.75.89h0v-3.46Zm-1.06,5.07a2.35,2.35,0,0,0,0-.45,1.56,1.56,0,0,0-1.53-1.22c-1.09,0-1.74,1-1.74,2.24s.58,2.15,1.72,2.15a1.6,1.6,0,0,0,1.55-1.26,2.15,2.15,0,0,0,0-.45Z"/><path class="cls-4" d="M188.79,230.37c0,.6,0,1.13.05,1.58h-.94l-.06-.95h0a2.19,2.19,0,0,1-1.92,1.08c-.91,0-2-.5-2-2.54v-3.39h1v3.21c0,1.1.34,1.85,1.3,1.85a1.52,1.52,0,0,0,1.39-1,1.57,1.57,0,0,0,.1-.54v-3.56h1Z"/><path class="cls-4" d="M194.68,231.73a3.72,3.72,0,0,1-1.66.34,2.76,2.76,0,0,1-2.89-3,2.94,2.94,0,0,1,3.12-3.08,3.44,3.44,0,0,1,1.46.3l-.24.81a2.5,2.5,0,0,0-1.22-.27,2.18,2.18,0,0,0,0,4.36,2.86,2.86,0,0,0,1.29-.29Z"/><path class="cls-4" d="M197.35,224.48v1.67h1.51v.8h-1.51v3.13c0,.72.2,1.13.79,1.13a2.6,2.6,0,0,0,.61-.07l.05.79a2.67,2.67,0,0,1-.93.14,1.47,1.47,0,0,1-1.14-.44,2.17,2.17,0,0,1-.41-1.51V227h-.9v-.8h.9v-1.4Z"/><path class="cls-4" d="M201.23,224.51a.63.63,0,0,1-.68.65.63.63,0,0,1-.63-.65.64.64,0,0,1,.66-.66A.63.63,0,0,1,201.23,224.51ZM200.05,232v-5.8h1.06V232Z"/><path class="cls-4" d="M208.11,229a2.83,2.83,0,0,1-2.89,3.08,2.76,2.76,0,0,1-2.78-3,2.84,2.84,0,0,1,2.88-3.09A2.76,2.76,0,0,1,208.11,229Zm-4.6.06c0,1.27.73,2.23,1.76,2.23S207,230.34,207,229c0-1-.49-2.23-1.74-2.23S203.51,228,203.51,229.06Z"/><path class="cls-4" d="M209.45,227.72c0-.6,0-1.09,0-1.57h.93l.06,1h0a2.13,2.13,0,0,1,1.92-1.1c.8,0,2,.48,2,2.47V232h-1.06V228.6c0-.93-.35-1.71-1.34-1.71a1.5,1.5,0,0,0-1.42,1.08,1.75,1.75,0,0,0-.07.49V232h-1.05Z"/><path class="cls-4" d="M215.22,232.43l3.34-8.69h.82L216,232.43Z"/><path class="cls-4" d="M218.81,233.63a1.75,1.75,0,0,0,1.15-.44c.29-.34.39-.8.39-2.19v-4.85h1.06v5.26a3.17,3.17,0,0,1-.7,2.39,2.65,2.65,0,0,1-1.8.66Zm2.72-9.12a.62.62,0,0,1-.66.65.63.63,0,0,1-.65-.65.65.65,0,0,1,.67-.66A.62.62,0,0,1,221.53,224.51Z"/><path class="cls-4" d="M223,230.87a2.75,2.75,0,0,0,1.39.42c.77,0,1.13-.38,1.13-.86s-.3-.78-1.08-1.07c-1-.37-1.53-1-1.53-1.64a1.79,1.79,0,0,1,2-1.71,2.94,2.94,0,0,1,1.43.36l-.27.77a2.25,2.25,0,0,0-1.18-.33c-.63,0-1,.36-1,.79s.35.69,1.11,1c1,.38,1.52.89,1.52,1.75,0,1-.79,1.74-2.17,1.74a3.33,3.33,0,0,1-1.63-.4Z"/><path class="cls-4" d="M227,232.43l3.35-8.69h.81l-3.35,8.69Z"/><path class="cls-4" d="M237,223.44v7c0,.52,0,1.1,0,1.5h-.95l-.05-1h0a2.15,2.15,0,0,1-2,1.14c-1.41,0-2.49-1.18-2.49-3,0-1.93,1.19-3.12,2.61-3.12a1.94,1.94,0,0,1,1.75.89h0v-3.46ZM236,228.51a1.77,1.77,0,0,0-.05-.45,1.54,1.54,0,0,0-1.52-1.22c-1.09,0-1.74,1-1.74,2.24s.58,2.15,1.72,2.15a1.58,1.58,0,0,0,1.54-1.26,1.64,1.64,0,0,0,.05-.45Z"/><path class="cls-4" d="M240,224.51a.66.66,0,0,1-1.31,0,.65.65,0,0,1,.66-.66A.63.63,0,0,1,240,224.51ZM238.77,232v-5.8h1.06V232Z"/><path class="cls-4" d="M241.44,230.87a2.69,2.69,0,0,0,1.39.42c.77,0,1.13-.38,1.13-.86s-.3-.78-1.08-1.07c-1-.37-1.54-1-1.54-1.64a1.79,1.79,0,0,1,2-1.71,2.91,2.91,0,0,1,1.43.36l-.26.77a2.32,2.32,0,0,0-1.19-.33c-.62,0-1,.36-1,.79s.35.69,1.1,1c1,.38,1.53.89,1.53,1.75,0,1-.8,1.74-2.18,1.74a3.33,3.33,0,0,1-1.63-.4Z"/><path class="cls-4" d="M247.6,224.48v1.67h1.52v.8H247.6v3.13c0,.72.21,1.13.8,1.13a2.68,2.68,0,0,0,.61-.07l.05.79a2.73,2.73,0,0,1-.94.14,1.49,1.49,0,0,1-1.14-.44,2.17,2.17,0,0,1-.41-1.51V227h-.9v-.8h.9v-1.4Z"/><path class="cls-4" d="M249.42,232.43l3.34-8.69h.82l-3.36,8.69Z"/><path class="cls-4" d="M258.56,231.73a3.81,3.81,0,0,1-1.67.34,2.76,2.76,0,0,1-2.89-3,2.94,2.94,0,0,1,3.12-3.08,3.44,3.44,0,0,1,1.46.3l-.24.81a2.5,2.5,0,0,0-1.22-.27,2.19,2.19,0,0,0,0,4.36,2.9,2.9,0,0,0,1.3-.29Z"/><path class="cls-4" d="M263,232l-.08-.73h0a2.17,2.17,0,0,1-1.77.86,1.66,1.66,0,0,1-1.78-1.66c0-1.41,1.25-2.18,3.49-2.16v-.12a1.2,1.2,0,0,0-1.32-1.35,2.84,2.84,0,0,0-1.51.44l-.24-.7a3.64,3.64,0,0,1,1.91-.52c1.77,0,2.2,1.22,2.2,2.38v2.17A8.4,8.4,0,0,0,264,232Zm-.16-3c-1.15,0-2.45.18-2.45,1.31a.93.93,0,0,0,1,1,1.43,1.43,0,0,0,1.4-1,1,1,0,0,0,.06-.33Z"/><path class="cls-4" d="M265.58,228c0-.69,0-1.27-.05-1.81h.93l0,1.14h.05a1.75,1.75,0,0,1,1.61-1.28,1.36,1.36,0,0,1,.3,0v1a1.32,1.32,0,0,0-.36,0,1.48,1.48,0,0,0-1.42,1.35,3.68,3.68,0,0,0-.05.5V232h-1Z"/><path class="cls-4" d="M269.36,230.87a2.69,2.69,0,0,0,1.39.42c.77,0,1.13-.38,1.13-.86s-.3-.78-1.08-1.07c-1-.37-1.54-1-1.54-1.64a1.8,1.8,0,0,1,2-1.71,2.9,2.9,0,0,1,1.42.36l-.26.77a2.32,2.32,0,0,0-1.19-.33c-.62,0-1,.36-1,.79s.35.69,1.1,1c1,.38,1.53.89,1.53,1.75,0,1-.79,1.74-2.17,1.74a3.27,3.27,0,0,1-1.63-.4Z"/><path class="cls-4" d="M273.87,231.33a.71.71,0,0,1,.72-.76.76.76,0,1,1-.72.76Z"/><path class="cls-4" d="M276.56,232c0-.4.05-1,.05-1.5v-7h1v3.64h0a2.15,2.15,0,0,1,2-1.07c1.44,0,2.46,1.2,2.45,3,0,2.07-1.31,3.1-2.6,3.1a2.06,2.06,0,0,1-1.94-1.09h0l0,1Zm1.09-2.33a2.3,2.3,0,0,0,.05.39,1.63,1.63,0,0,0,1.58,1.23c1.11,0,1.77-.9,1.77-2.23,0-1.16-.6-2.16-1.73-2.16a1.7,1.7,0,0,0-1.61,1.3,2.34,2.34,0,0,0-.06.43Z"/><path class="cls-4" d="M288.29,230.37c0,.6,0,1.13,0,1.58h-.93l-.06-.95h0a2.18,2.18,0,0,1-1.92,1.08c-.91,0-2-.5-2-2.54v-3.39h1.05v3.21c0,1.1.34,1.85,1.3,1.85a1.52,1.52,0,0,0,1.39-1,1.57,1.57,0,0,0,.1-.54v-3.56h1.05Z"/><path class="cls-4" d="M290.05,227.72c0-.6,0-1.09-.05-1.57h.94l.06,1h0a2.13,2.13,0,0,1,1.92-1.1c.8,0,2.05.48,2.05,2.47V232h-1.06V228.6c0-.93-.34-1.71-1.34-1.71a1.49,1.49,0,0,0-1.41,1.08,1.44,1.44,0,0,0-.08.49V232h-1.05Z"/><path class="cls-4" d="M301.72,223.44v7c0,.52,0,1.1,0,1.5h-.95l-.05-1h0a2.14,2.14,0,0,1-2,1.14c-1.4,0-2.48-1.18-2.48-3,0-1.93,1.19-3.12,2.6-3.12a1.93,1.93,0,0,1,1.75.89h0v-3.46Zm-1.05,5.07a2.38,2.38,0,0,0-.05-.45,1.56,1.56,0,0,0-1.53-1.22c-1.09,0-1.73,1-1.73,2.24s.57,2.15,1.71,2.15a1.59,1.59,0,0,0,1.55-1.26,2.14,2.14,0,0,0,.05-.45Z"/><path class="cls-4" d="M303.48,223.44h1V232h-1Z"/><path class="cls-4" d="M306.9,229.24a1.85,1.85,0,0,0,2,2,3.93,3.93,0,0,0,1.6-.29l.18.75a4.63,4.63,0,0,1-1.93.36,2.69,2.69,0,0,1-2.85-2.93c0-1.75,1-3.13,2.72-3.13a2.46,2.46,0,0,1,2.4,2.74,4.35,4.35,0,0,1,0,.49Zm3.09-.76a1.5,1.5,0,0,0-1.46-1.71,1.74,1.74,0,0,0-1.62,1.71Z"/><path class="cls-4" d="M311.92,231.33a.71.71,0,0,1,.72-.76.76.76,0,1,1-.72.76Z"/><path class="cls-4" d="M313.24,233.63a1.8,1.8,0,0,0,1.16-.44c.28-.34.39-.8.39-2.19v-4.85h1.06v5.26a3.17,3.17,0,0,1-.7,2.39,2.66,2.66,0,0,1-1.8.66Zm2.73-9.12a.62.62,0,0,1-.66.65.63.63,0,0,1-.65-.65.65.65,0,0,1,.67-.66A.63.63,0,0,1,316,224.51Z"/><path class="cls-4" d="M317.43,230.87a2.69,2.69,0,0,0,1.39.42c.77,0,1.13-.38,1.13-.86s-.3-.78-1.08-1.07c-1-.37-1.53-1-1.53-1.64a1.79,1.79,0,0,1,2-1.71,2.94,2.94,0,0,1,1.43.36l-.27.77a2.32,2.32,0,0,0-1.19-.33c-.62,0-1,.36-1,.79s.35.69,1.11,1c1,.38,1.52.89,1.52,1.75,0,1-.79,1.74-2.17,1.74a3.3,3.3,0,0,1-1.63-.4Z"/><path class="cls-4" d="M323.11,223.74l-.21,2.87h-.64l-.2-2.87Zm1.78,0-.2,2.87h-.64l-.2-2.87Z"/><path class="cls-4" d="M331.85,229.1,326.29,232v-.83l4.72-2.35v0l-4.72-2.35v-.83l5.56,2.85Z"/><rect class="cls-3" x="44.18" y="9.07" width="417.83" height="14.17"/><rect class="cls-10" x="52.79" y="218.15" width="305.23" height="19.69"/><line class="cls-11" x1="276" y1="414.77" x2="276" y2="382.87"/><path class="cls-4" d="M276,376.83a30,30,0,0,0,4.76,8.55L276,383.66l-4.75,1.72A30.18,30.18,0,0,0,276,376.83Z"/><rect class="cls-11" x="187.35" y="335.15" width="175.3" height="42.46"/><path class="cls-4" d="M220.29,359.12a3.9,3.9,0,0,1-1.66.33,2.75,2.75,0,0,1-2.89-3,2.94,2.94,0,0,1,3.11-3.08,3.61,3.61,0,0,1,1.47.3l-.24.81a2.51,2.51,0,0,0-1.23-.27,2.19,2.19,0,0,0,0,4.36,3,3,0,0,0,1.29-.28Z"/><path class="cls-4" d="M226.71,356.38a2.84,2.84,0,0,1-2.89,3.09,2.76,2.76,0,0,1-2.78-3,2.83,2.83,0,0,1,2.88-3.08A2.74,2.74,0,0,1,226.71,356.38Zm-4.6.06c0,1.28.73,2.24,1.76,2.24s1.76-.95,1.76-2.26c0-1-.49-2.23-1.73-2.23S222.11,355.34,222.11,356.44Z"/><path class="cls-4" d="M228.05,355.1c0-.6,0-1.09-.05-1.57h.92l.05.94h0a2,2,0,0,1,1.82-1.07,1.71,1.71,0,0,1,1.64,1.16h0a2.29,2.29,0,0,1,.65-.75,1.93,1.93,0,0,1,1.28-.41c.77,0,1.91.5,1.91,2.52v3.41h-1v-3.28c0-1.12-.4-1.79-1.26-1.79a1.35,1.35,0,0,0-1.24,1,1.68,1.68,0,0,0-.09.53v3.58h-1v-3.47c0-.93-.41-1.6-1.21-1.6a1.45,1.45,0,0,0-1.31,1.06,1.4,1.4,0,0,0-.08.51v3.5h-1Z"/><path class="cls-4" d="M238.06,355.42c0-.74,0-1.34-.05-1.89h1l0,1h0a2.28,2.28,0,0,1,2.06-1.12c1.4,0,2.46,1.19,2.46,3,0,2.09-1.27,3.12-2.64,3.12a2.05,2.05,0,0,1-1.79-.91h0v3.15h-1Zm1,1.55a1.88,1.88,0,0,0,.05.43,1.62,1.62,0,0,0,1.58,1.24c1.12,0,1.76-.91,1.76-2.24,0-1.17-.61-2.16-1.72-2.16a1.68,1.68,0,0,0-1.6,1.3,2.13,2.13,0,0,0-.07.44Z"/><path class="cls-4" d="M246.06,351.9a.62.62,0,0,1-.67.65.63.63,0,0,1-.64-.65.65.65,0,0,1,.66-.66A.63.63,0,0,1,246.06,351.9Zm-1.18,7.43v-5.8h1.06v5.8Z"/><path class="cls-4" d="M247.69,350.82h1.06v8.51h-1.06Z"/><path class="cls-4" d="M251.11,356.62a1.87,1.87,0,0,0,2,2,3.8,3.8,0,0,0,1.61-.3l.18.75a4.67,4.67,0,0,1-1.93.36,2.69,2.69,0,0,1-2.86-2.92c0-1.75,1-3.13,2.73-3.13a2.46,2.46,0,0,1,2.4,2.73,4,4,0,0,1,0,.49Zm3.1-.75a1.51,1.51,0,0,0-1.47-1.72,1.77,1.77,0,0,0-1.62,1.72Z"/><path class="cls-4" d="M261.55,350.82v7c0,.51,0,1.1.05,1.49h-1l0-1h0a2.15,2.15,0,0,1-2,1.14c-1.41,0-2.48-1.19-2.48-3,0-1.93,1.18-3.12,2.6-3.12a1.93,1.93,0,0,1,1.75.89h0v-3.47Zm-1.06,5.07a1.65,1.65,0,0,0-.05-.44,1.54,1.54,0,0,0-1.52-1.22c-1.09,0-1.74,1-1.74,2.24s.58,2.14,1.72,2.14a1.57,1.57,0,0,0,1.54-1.25,1.71,1.71,0,0,0,.05-.46Z"/><path class="cls-4" d="M267.12,351.86v1.67h1.51v.8h-1.51v3.13c0,.72.2,1.13.79,1.13a2.15,2.15,0,0,0,.61-.07l.05.79a2.69,2.69,0,0,1-.94.14,1.47,1.47,0,0,1-1.14-.44,2.15,2.15,0,0,1-.4-1.51v-3.17h-.9v-.8h.9v-1.39Z"/><path class="cls-4" d="M275,356.38a2.84,2.84,0,0,1-2.89,3.09,2.76,2.76,0,0,1-2.78-3,2.83,2.83,0,0,1,2.88-3.08A2.75,2.75,0,0,1,275,356.38Zm-4.6.06c0,1.28.73,2.24,1.76,2.24s1.76-.95,1.76-2.26c0-1-.49-2.23-1.74-2.23S270.4,355.34,270.4,356.44Z"/><path class="cls-4" d="M283,359.12a4,4,0,0,1-1.67.33,2.75,2.75,0,0,1-2.89-3,2.94,2.94,0,0,1,3.12-3.08,3.6,3.6,0,0,1,1.46.3l-.24.81a2.5,2.5,0,0,0-1.22-.27,2,2,0,0,0-2.05,2.19,2,2,0,0,0,2,2.17,3.07,3.07,0,0,0,1.3-.28Z"/><path class="cls-4" d="M287.47,359.33l-.08-.73h0a2.16,2.16,0,0,1-1.78.87,1.65,1.65,0,0,1-1.77-1.67c0-1.4,1.25-2.17,3.49-2.16v-.12a1.19,1.19,0,0,0-1.32-1.34,2.93,2.93,0,0,0-1.51.43l-.24-.7a3.61,3.61,0,0,1,1.91-.51c1.77,0,2.2,1.21,2.2,2.37v2.17a8.24,8.24,0,0,0,.1,1.39Zm-.16-3c-1.15,0-2.46.18-2.46,1.31a.94.94,0,0,0,1,1,1.43,1.43,0,0,0,1.4-1,1,1,0,0,0,.06-.34Z"/><path class="cls-4" d="M290,355.34c0-.68,0-1.27-.05-1.81h.92l0,1.14H291a1.74,1.74,0,0,1,1.61-1.27,1.39,1.39,0,0,1,.3,0v1a1.32,1.32,0,0,0-.36,0,1.48,1.48,0,0,0-1.42,1.36,3.37,3.37,0,0,0-.05.49v3.09h-1Z"/><path class="cls-4" d="M293.82,358.26a2.79,2.79,0,0,0,1.39.42c.77,0,1.13-.39,1.13-.87s-.3-.78-1.08-1.07c-1.05-.37-1.54-.94-1.54-1.64a1.8,1.8,0,0,1,2-1.7,2.9,2.9,0,0,1,1.42.36l-.26.76a2.32,2.32,0,0,0-1.19-.33c-.62,0-1,.36-1,.79s.35.7,1.1,1c1,.39,1.53.89,1.53,1.76s-.79,1.73-2.17,1.73a3.27,3.27,0,0,1-1.63-.39Z"/><path class="cls-4" d="M298.33,358.71a.71.71,0,0,1,.72-.75.7.7,0,0,1,.71.75.72.72,0,1,1-1.43,0Z"/><path class="cls-4" d="M301,359.33c0-.39.05-1,.05-1.49v-7h1v3.65h0a2.18,2.18,0,0,1,2-1.07c1.44,0,2.46,1.2,2.45,3,0,2.08-1.31,3.11-2.6,3.11a2.09,2.09,0,0,1-1.95-1.1h0l-.05,1Zm1.09-2.32a1.58,1.58,0,0,0,.05.38,1.63,1.63,0,0,0,1.58,1.24c1.1,0,1.76-.9,1.76-2.23,0-1.17-.6-2.16-1.72-2.16a1.69,1.69,0,0,0-1.61,1.29,2.47,2.47,0,0,0-.06.43Z"/><path class="cls-4" d="M312.75,357.75c0,.6,0,1.13.05,1.58h-.94l-.06-.94h0a2.21,2.21,0,0,1-1.92,1.08c-.91,0-2-.51-2-2.55v-3.39h1.05v3.21c0,1.11.34,1.85,1.3,1.85a1.5,1.5,0,0,0,1.49-1.5v-3.56h1.05Z"/><path class="cls-4" d="M314.51,355.1c0-.6,0-1.09-.05-1.57h.93l.06,1h0a2.14,2.14,0,0,1,1.92-1.09c.8,0,2.05.48,2.05,2.47v3.46h-1.06V356c0-.94-.34-1.72-1.34-1.72a1.51,1.51,0,0,0-1.42,1.08,1.75,1.75,0,0,0-.07.49v3.49h-1.05Z"/><path class="cls-4" d="M326.18,350.82v7c0,.51,0,1.1.05,1.49h-1l0-1h0a2.14,2.14,0,0,1-2,1.14c-1.4,0-2.48-1.19-2.48-3,0-1.93,1.19-3.12,2.6-3.12a1.93,1.93,0,0,1,1.75.89h0v-3.47Zm-1.06,5.07a2.18,2.18,0,0,0,0-.44,1.56,1.56,0,0,0-1.53-1.22c-1.09,0-1.74,1-1.74,2.24s.58,2.14,1.72,2.14a1.58,1.58,0,0,0,1.55-1.25,2.25,2.25,0,0,0,0-.46Z"/><path class="cls-4" d="M327.94,350.82H329v8.51h-1.05Z"/><path class="cls-4" d="M331.35,356.62a1.87,1.87,0,0,0,2,2,3.75,3.75,0,0,0,1.6-.3l.18.75a4.67,4.67,0,0,1-1.93.36,2.69,2.69,0,0,1-2.85-2.92c0-1.75,1-3.13,2.72-3.13a2.46,2.46,0,0,1,2.4,2.73,4,4,0,0,1,0,.49Zm3.1-.75a1.51,1.51,0,0,0-1.46-1.72,1.75,1.75,0,0,0-1.62,1.72Z"/><path class="cls-4" d="M336.38,358.71a.71.71,0,0,1,.72-.75.7.7,0,0,1,.71.75.72.72,0,1,1-1.43,0Z"/><path class="cls-4" d="M337.7,361a1.65,1.65,0,0,0,1.15-.44c.29-.34.4-.79.4-2.18v-4.86h1.05v5.26a3.22,3.22,0,0,1-.69,2.39,2.68,2.68,0,0,1-1.8.66Zm2.72-9.11a.61.61,0,0,1-.65.65.63.63,0,0,1-.65-.65.64.64,0,0,1,.67-.66A.62.62,0,0,1,340.42,351.9Z"/><path class="cls-4" d="M341.89,358.26a2.79,2.79,0,0,0,1.39.42c.77,0,1.13-.39,1.13-.87s-.3-.78-1.08-1.07c-1.05-.37-1.54-.94-1.54-1.64a1.8,1.8,0,0,1,2-1.7,2.9,2.9,0,0,1,1.42.36l-.26.76a2.32,2.32,0,0,0-1.19-.33c-.62,0-1,.36-1,.79s.35.7,1.1,1c1,.39,1.53.89,1.53,1.76s-.79,1.73-2.17,1.73a3.27,3.27,0,0,1-1.63-.39Z"/><rect class="cls-10" x="51.25" y="146.15" width="190.15" height="53.54"/><line class="cls-10" x1="335.25" y1="172.92" x2="258.7" y2="172.92"/><path class="cls-7" d="M246.63,172.92c5.68-2.1,12.73-5.7,17.1-9.51l-3.44,9.51,3.44,9.51C259.36,178.62,252.31,175,246.63,172.92Z"/><path class="cls-4" d="M345.1,164.74c0-.69,0-1.28-.05-1.82H346l0,1.14h.05a1.74,1.74,0,0,1,1.61-1.27,1,1,0,0,1,.3,0v1a2,2,0,0,0-.37,0,1.47,1.47,0,0,0-1.41,1.35,3.68,3.68,0,0,0-.05.5v3.09h-1Z"/><path class="cls-4" d="M349.49,166a1.85,1.85,0,0,0,2,2,3.8,3.8,0,0,0,1.61-.3l.18.76a4.67,4.67,0,0,1-1.93.36,2.7,2.7,0,0,1-2.86-2.93c0-1.75,1-3.13,2.73-3.13a2.46,2.46,0,0,1,2.39,2.74,4.88,4.88,0,0,1,0,.49Zm3.09-.76a1.49,1.49,0,0,0-1.46-1.71,1.75,1.75,0,0,0-1.62,1.71Z"/><path class="cls-4" d="M354.91,164.5c0-.6,0-1.1,0-1.58h.93l.06,1h0a2.12,2.12,0,0,1,1.91-1.09c.81,0,2.05.48,2.05,2.47v3.47H358.8v-3.35c0-.93-.35-1.71-1.34-1.71a1.5,1.5,0,0,0-1.42,1.08,1.45,1.45,0,0,0-.07.49v3.49h-1.06Z"/><path class="cls-4" d="M366.59,160.21v7c0,.52,0,1.1.05,1.5h-.95l-.05-1h0a2.16,2.16,0,0,1-2,1.14c-1.41,0-2.49-1.19-2.49-3,0-1.93,1.19-3.12,2.61-3.12a1.94,1.94,0,0,1,1.75.89h0v-3.47Zm-1.06,5.08a1.77,1.77,0,0,0,0-.45,1.54,1.54,0,0,0-1.52-1.22c-1.09,0-1.74,1-1.74,2.24s.58,2.15,1.72,2.15a1.58,1.58,0,0,0,1.54-1.26,1.66,1.66,0,0,0,0-.46Z"/><path class="cls-4" d="M368.93,166a1.85,1.85,0,0,0,2,2,3.8,3.8,0,0,0,1.61-.3l.18.76a4.67,4.67,0,0,1-1.93.36,2.7,2.7,0,0,1-2.86-2.93c0-1.75,1-3.13,2.73-3.13a2.46,2.46,0,0,1,2.39,2.74,4.88,4.88,0,0,1,0,.49Zm3.09-.76a1.49,1.49,0,0,0-1.46-1.71,1.75,1.75,0,0,0-1.62,1.71Z"/><path class="cls-4" d="M374.35,164.74c0-.69,0-1.28,0-1.82h.92l0,1.14h0a1.75,1.75,0,0,1,1.61-1.27,1,1,0,0,1,.3,0v1a1.94,1.94,0,0,0-.36,0,1.49,1.49,0,0,0-1.42,1.35,3.75,3.75,0,0,0,0,.5v3.09h-1Z"/><path class="cls-4" d="M378.74,166a1.86,1.86,0,0,0,2,2,3.75,3.75,0,0,0,1.6-.3l.18.76a4.63,4.63,0,0,1-1.93.36,2.7,2.7,0,0,1-2.85-2.93c0-1.75,1-3.13,2.72-3.13a2.47,2.47,0,0,1,2.4,2.74,4.35,4.35,0,0,1,0,.49Zm3.1-.76a1.5,1.5,0,0,0-1.46-1.71,1.74,1.74,0,0,0-1.62,1.71Z"/><path class="cls-4" d="M389.18,160.21v7c0,.52,0,1.1.05,1.5h-1l0-1h0a2.14,2.14,0,0,1-2,1.14c-1.4,0-2.48-1.19-2.48-3,0-1.93,1.19-3.12,2.6-3.12a1.93,1.93,0,0,1,1.75.89h0v-3.47Zm-1.05,5.08a2.38,2.38,0,0,0-.05-.45,1.55,1.55,0,0,0-1.52-1.22c-1.1,0-1.74,1-1.74,2.24s.57,2.15,1.71,2.15a1.59,1.59,0,0,0,1.55-1.26,2.16,2.16,0,0,0,.05-.46Z"/><path class="cls-4" d="M393.43,168.73c0-.4.05-1,.05-1.5v-7h1v3.65h0a2.15,2.15,0,0,1,2-1.07c1.44,0,2.46,1.2,2.44,3,0,2.07-1.3,3.1-2.6,3.1a2.06,2.06,0,0,1-1.94-1.09h0l-.05,1Zm1.09-2.33a2.44,2.44,0,0,0,.05.39,1.63,1.63,0,0,0,1.58,1.23c1.11,0,1.77-.9,1.77-2.23,0-1.16-.6-2.16-1.73-2.16a1.69,1.69,0,0,0-1.61,1.3,2.34,2.34,0,0,0-.06.43Z"/><path class="cls-4" d="M400.61,162.92l1.27,3.43c.13.39.28.84.37,1.19h0c.1-.35.22-.79.37-1.21l1.15-3.41h1.11l-1.58,4.14c-.75,2-1.27,3-2,3.64a2.9,2.9,0,0,1-1.29.68l-.27-.89a2.8,2.8,0,0,0,.93-.51,3.32,3.32,0,0,0,.88-1.18.76.76,0,0,0,.09-.25,1,1,0,0,0-.08-.28l-2.14-5.35Z"/><path class="cls-4" d="M412.56,168.51a3.81,3.81,0,0,1-1.67.34,2.76,2.76,0,0,1-2.89-3,3,3,0,0,1,3.12-3.09,3.6,3.6,0,0,1,1.46.3l-.24.82a2.48,2.48,0,0,0-1.22-.28,2,2,0,0,0-2.05,2.2,2,2,0,0,0,2,2.17,3,3,0,0,0,1.3-.29Z"/><path class="cls-4" d="M417,168.73l-.08-.73h0a2.17,2.17,0,0,1-1.77.86,1.66,1.66,0,0,1-1.78-1.67c0-1.4,1.25-2.17,3.49-2.15v-.12a1.2,1.2,0,0,0-1.32-1.35A2.93,2.93,0,0,0,414,164l-.24-.69a3.64,3.64,0,0,1,1.91-.52c1.77,0,2.21,1.21,2.21,2.38v2.17a8.47,8.47,0,0,0,.09,1.39Zm-.15-3c-1.16,0-2.46.18-2.46,1.3a.93.93,0,0,0,1,1,1.45,1.45,0,0,0,1.41-1,1.35,1.35,0,0,0,.06-.34Z"/><path class="cls-4" d="M419.58,164.74c0-.69,0-1.28-.05-1.82h.93l0,1.14h.05a1.74,1.74,0,0,1,1.61-1.27,1,1,0,0,1,.3,0v1a1.94,1.94,0,0,0-.36,0,1.48,1.48,0,0,0-1.42,1.35,3.68,3.68,0,0,0-.05.5v3.09h-1Z"/><path class="cls-4" d="M423.36,167.65a2.79,2.79,0,0,0,1.39.42c.77,0,1.13-.38,1.13-.86s-.3-.78-1.08-1.07c-1-.37-1.53-.95-1.53-1.64a1.79,1.79,0,0,1,2-1.71,2.87,2.87,0,0,1,1.42.36l-.26.77a2.31,2.31,0,0,0-1.19-.34c-.62,0-1,.36-1,.8s.35.69,1.11,1c1,.38,1.52.89,1.52,1.75,0,1-.79,1.74-2.17,1.74a3.3,3.3,0,0,1-1.63-.4Z"/><path class="cls-4" d="M427.87,168.11a.71.71,0,0,1,.72-.76.76.76,0,1,1-.72.76Z"/><path class="cls-4" d="M429.19,170.41a1.7,1.7,0,0,0,1.15-.45c.29-.33.4-.79.4-2.18v-4.86h1.06v5.27a3.17,3.17,0,0,1-.7,2.39,2.73,2.73,0,0,1-1.8.66Zm2.73-9.12a.62.62,0,0,1-.66.65.63.63,0,0,1-.65-.65.64.64,0,0,1,.67-.66A.63.63,0,0,1,431.92,161.29Z"/><path class="cls-4" d="M433.38,167.65a2.79,2.79,0,0,0,1.39.42c.77,0,1.13-.38,1.13-.86s-.3-.78-1.08-1.07c-1-.37-1.54-.95-1.54-1.64a1.8,1.8,0,0,1,2-1.71,2.87,2.87,0,0,1,1.42.36l-.26.77a2.31,2.31,0,0,0-1.19-.34c-.62,0-1,.36-1,.8s.35.69,1.11,1c1,.38,1.52.89,1.52,1.75,0,1-.79,1.74-2.17,1.74a3.27,3.27,0,0,1-1.63-.4Z"/><path class="cls-4" d="M441.24,162.92l.77,3c.17.64.32,1.24.43,1.84h0c.13-.59.32-1.21.51-1.83l.95-3h.89l.9,2.91c.21.69.38,1.3.51,1.89h0a16.15,16.15,0,0,1,.44-1.88l.83-2.92h1l-1.87,5.81h-1l-.88-2.77a16.75,16.75,0,0,1-.52-1.91h0a19,19,0,0,1-.53,1.92l-.94,2.76h-1l-1.75-5.81Z"/><path class="cls-4" d="M449.65,160.21h1.06v3.63h0a2,2,0,0,1,.76-.75,2.16,2.16,0,0,1,1.08-.3c.78,0,2,.48,2,2.49v3.45h-1V165.4c0-.94-.35-1.73-1.34-1.73a1.52,1.52,0,0,0-1.42,1.05,1.31,1.31,0,0,0-.07.51v3.5h-1.06Z"/><path class="cls-4" d="M457.49,161.29a.62.62,0,0,1-.67.65.63.63,0,0,1-.64-.65.65.65,0,0,1,.66-.66A.63.63,0,0,1,457.49,161.29Zm-1.18,7.44v-5.81h1.06v5.81Z"/><path class="cls-4" d="M463.26,168.51a3.81,3.81,0,0,1-1.67.34,2.76,2.76,0,0,1-2.89-3,3,3,0,0,1,3.12-3.09,3.6,3.6,0,0,1,1.46.3l-.24.82a2.48,2.48,0,0,0-1.22-.28,2,2,0,0,0-2.05,2.2,2,2,0,0,0,2,2.17,3,3,0,0,0,1.3-.29Z"/><path class="cls-4" d="M464.5,160.21h1.05v3.63h0a1.93,1.93,0,0,1,.75-.75,2.19,2.19,0,0,1,1.08-.3c.78,0,2,.48,2,2.49v3.45h-1.06V165.4c0-.94-.34-1.73-1.34-1.73a1.54,1.54,0,0,0-1.42,1.05,1.31,1.31,0,0,0-.07.51v3.5H464.5Z"/><path class="cls-4" d="M474.88,161.29a.63.63,0,0,1-.68.65.63.63,0,0,1-.63-.65.64.64,0,0,1,.66-.66A.63.63,0,0,1,474.88,161.29Zm-1.18,7.44v-5.81h1.06v5.81Z"/><path class="cls-4" d="M476.36,167.65a2.86,2.86,0,0,0,1.4.42c.76,0,1.12-.38,1.12-.86s-.3-.78-1.08-1.07c-1-.37-1.53-.95-1.53-1.64a1.79,1.79,0,0,1,2-1.71,2.91,2.91,0,0,1,1.43.36l-.26.77a2.31,2.31,0,0,0-1.19-.34c-.63,0-1,.36-1,.8s.34.69,1.1,1c1,.38,1.52.89,1.52,1.75,0,1-.79,1.74-2.17,1.74a3.33,3.33,0,0,1-1.63-.4Z"/><path class="cls-4" d="M345,182.05a2.86,2.86,0,0,0,1.4.42c.76,0,1.12-.38,1.12-.86s-.3-.78-1.08-1.07c-1-.37-1.53-.95-1.53-1.64a1.79,1.79,0,0,1,2-1.71,2.91,2.91,0,0,1,1.43.36l-.27.77a2.24,2.24,0,0,0-1.18-.34c-.63,0-1,.36-1,.8s.34.69,1.1,1c1,.38,1.52.89,1.52,1.75,0,1-.79,1.74-2.17,1.74a3.33,3.33,0,0,1-1.63-.4Z"/><path class="cls-4" d="M351.12,175.66v1.66h1.51v.81h-1.51v3.13c0,.72.21,1.13.79,1.13a2.08,2.08,0,0,0,.61-.08l.05.8a2.63,2.63,0,0,1-.93.14,1.49,1.49,0,0,1-1.14-.44,2.18,2.18,0,0,1-.41-1.52v-3.16h-.9v-.81h.9v-1.39Z"/><path class="cls-4" d="M359,180.18a2.83,2.83,0,0,1-2.89,3.08,2.76,2.76,0,0,1-2.78-3,2.83,2.83,0,0,1,2.88-3.08A2.74,2.74,0,0,1,359,180.18Zm-4.6.06c0,1.27.73,2.23,1.76,2.23s1.76-.95,1.76-2.26c0-1-.49-2.23-1.73-2.23S354.4,179.14,354.4,180.24Z"/><path class="cls-4" d="M360.34,179.14c0-.69,0-1.28,0-1.82h.92l0,1.14h.05a1.74,1.74,0,0,1,1.6-1.27.91.91,0,0,1,.3,0v1a1.79,1.79,0,0,0-.36,0,1.47,1.47,0,0,0-1.41,1.35,3.52,3.52,0,0,0-.05.5v3.09h-1Z"/><path class="cls-4" d="M364.73,180.42a1.85,1.85,0,0,0,2,2,3.8,3.8,0,0,0,1.61-.3l.18.76a4.67,4.67,0,0,1-1.93.36,2.7,2.7,0,0,1-2.86-2.93c0-1.75,1-3.13,2.72-3.13a2.46,2.46,0,0,1,2.4,2.74,4.88,4.88,0,0,1,0,.49Zm3.09-.76a1.49,1.49,0,0,0-1.46-1.71,1.75,1.75,0,0,0-1.62,1.71Z"/><path class="cls-4" d="M375.17,174.61v7c0,.52,0,1.1,0,1.5h-.94l0-1h0a2.13,2.13,0,0,1-2,1.14c-1.41,0-2.49-1.19-2.49-2.95,0-1.93,1.19-3.12,2.61-3.12a2,2,0,0,1,1.75.89h0v-3.47Zm-1.06,5.08a1.77,1.77,0,0,0-.05-.45,1.54,1.54,0,0,0-1.52-1.22c-1.09,0-1.74,1-1.74,2.24s.58,2.15,1.72,2.15a1.59,1.59,0,0,0,1.54-1.26,1.66,1.66,0,0,0,.05-.46Z"/><path class="cls-4" d="M380.64,175.69a.62.62,0,0,1-.67.65.63.63,0,0,1-.64-.65A.65.65,0,0,1,380,175,.63.63,0,0,1,380.64,175.69Zm-1.17,7.44v-5.81h1v5.81Z"/><path class="cls-4" d="M382.27,178.9c0-.6,0-1.1,0-1.58h.94l.06,1h0a2.14,2.14,0,0,1,1.92-1.09c.81,0,2,.48,2,2.47v3.47h-1v-3.35c0-.93-.35-1.71-1.35-1.71a1.5,1.5,0,0,0-1.41,1.08,1.45,1.45,0,0,0-.07.49v3.49h-1.06Z"/><path class="cls-4" d="M395.62,182.91a3.81,3.81,0,0,1-1.67.34,2.76,2.76,0,0,1-2.89-3,3,3,0,0,1,3.12-3.09,3.6,3.6,0,0,1,1.46.3l-.24.82a2.48,2.48,0,0,0-1.22-.28,2,2,0,0,0-2.05,2.2,2,2,0,0,0,2,2.17,3,3,0,0,0,1.3-.29Z"/><path class="cls-4" d="M400.07,183.13l-.09-.73h0a2.19,2.19,0,0,1-1.78.86,1.65,1.65,0,0,1-1.77-1.67c0-1.4,1.24-2.17,3.49-2.15v-.12a1.2,1.2,0,0,0-1.32-1.35,2.9,2.9,0,0,0-1.51.43l-.24-.69a3.6,3.6,0,0,1,1.9-.52c1.78,0,2.21,1.21,2.21,2.38v2.17a7.44,7.44,0,0,0,.1,1.39Zm-.16-3c-1.15,0-2.46.18-2.46,1.3a.94.94,0,0,0,1,1,1.45,1.45,0,0,0,1.4-1,1,1,0,0,0,.06-.34Z"/><path class="cls-4" d="M402.64,179.14c0-.69,0-1.28-.05-1.82h.92l0,1.14h.05a1.74,1.74,0,0,1,1.6-1.27.91.91,0,0,1,.3,0v1a1.79,1.79,0,0,0-.36,0,1.47,1.47,0,0,0-1.41,1.35,3.52,3.52,0,0,0-.05.5v3.09h-1Z"/><path class="cls-4" d="M406.42,182.05a2.79,2.79,0,0,0,1.39.42c.77,0,1.13-.38,1.13-.86s-.3-.78-1.08-1.07c-1.05-.37-1.54-.95-1.54-1.64a1.79,1.79,0,0,1,2-1.71,2.91,2.91,0,0,1,1.43.36l-.26.77a2.31,2.31,0,0,0-1.19-.34c-.62,0-1,.36-1,.8s.35.69,1.1,1c1,.38,1.53.89,1.53,1.75,0,1-.8,1.74-2.18,1.74a3.33,3.33,0,0,1-1.63-.4Z"/><path class="cls-4" d="M410.93,182.51a.71.71,0,0,1,.72-.76.76.76,0,1,1-.72.76Z"/><path class="cls-4" d="M413.62,183.13c0-.4.05-1,.05-1.5v-7h1v3.65h0a2.17,2.17,0,0,1,2-1.07c1.44,0,2.46,1.2,2.45,3,0,2.08-1.31,3.11-2.6,3.11a2.07,2.07,0,0,1-1.95-1.09h0l-.05,1Zm1.09-2.33a1.67,1.67,0,0,0,.05.39,1.62,1.62,0,0,0,1.58,1.23c1.1,0,1.76-.9,1.76-2.23,0-1.16-.6-2.16-1.72-2.16a1.68,1.68,0,0,0-1.61,1.3,1.71,1.71,0,0,0-.06.43Z"/><path class="cls-4" d="M425.35,181.55c0,.6,0,1.12,0,1.58h-.94l-.06-.95h0a2.19,2.19,0,0,1-1.92,1.08c-.91,0-2-.5-2-2.54v-3.4h1.05v3.22c0,1.1.34,1.85,1.3,1.85a1.53,1.53,0,0,0,1.39-1,1.57,1.57,0,0,0,.1-.54v-3.57h1.05Z"/><path class="cls-4" d="M427.1,178.9c0-.6,0-1.1,0-1.58H428l.06,1h0a2.12,2.12,0,0,1,1.91-1.09c.81,0,2.06.48,2.06,2.47v3.47H431v-3.35c0-.93-.35-1.71-1.34-1.71a1.5,1.5,0,0,0-1.42,1.08,1.45,1.45,0,0,0-.07.49v3.49H427.1Z"/><path class="cls-4" d="M438.78,174.61v7c0,.52,0,1.1.05,1.5h-.95l-.05-1h0a2.16,2.16,0,0,1-2,1.14c-1.41,0-2.48-1.19-2.48-2.95,0-1.93,1.18-3.12,2.6-3.12a1.93,1.93,0,0,1,1.75.89h0v-3.47Zm-1.06,5.08a1.77,1.77,0,0,0-.05-.45,1.54,1.54,0,0,0-1.52-1.22c-1.09,0-1.74,1-1.74,2.24s.58,2.15,1.72,2.15a1.58,1.58,0,0,0,1.54-1.26,1.66,1.66,0,0,0,.05-.46Z"/><path class="cls-4" d="M440.53,174.61h1.06v8.52h-1.06Z"/><path class="cls-4" d="M444,180.42a1.86,1.86,0,0,0,2,2,3.8,3.8,0,0,0,1.61-.3l.18.76a4.67,4.67,0,0,1-1.93.36,2.7,2.7,0,0,1-2.86-2.93c0-1.75,1-3.13,2.73-3.13a2.47,2.47,0,0,1,2.4,2.74,4.35,4.35,0,0,1,0,.49Zm3.1-.76a1.5,1.5,0,0,0-1.47-1.71,1.76,1.76,0,0,0-1.62,1.71Z"/><path class="cls-4" d="M449,182.51a.71.71,0,0,1,.72-.76.76.76,0,1,1-.72.76Z"/><path class="cls-4" d="M450.3,184.81a1.7,1.7,0,0,0,1.15-.45c.29-.33.4-.79.4-2.18v-4.86h1v5.27a3.22,3.22,0,0,1-.69,2.39,2.73,2.73,0,0,1-1.8.66Zm2.72-9.12a.62.62,0,0,1-.66.65.63.63,0,0,1-.64-.65.64.64,0,0,1,.67-.66A.62.62,0,0,1,453,175.69Z"/><path class="cls-4" d="M454.49,182.05a2.79,2.79,0,0,0,1.39.42c.77,0,1.13-.38,1.13-.86s-.3-.78-1.08-1.07c-1.05-.37-1.54-.95-1.54-1.64a1.8,1.8,0,0,1,2-1.71,2.9,2.9,0,0,1,1.42.36l-.26.77a2.31,2.31,0,0,0-1.19-.34c-.62,0-1,.36-1,.8s.35.69,1.1,1c1,.38,1.53.89,1.53,1.75,0,1-.8,1.74-2.18,1.74a3.33,3.33,0,0,1-1.63-.4Z"/><line class="cls-12" x1="276" y1="335.15" x2="276" y2="249.92"/><path class="cls-13" d="M276,237.85c2.11,5.68,5.7,12.72,9.51,17.09L276,251.5l-9.51,3.44C270.3,250.57,273.89,243.53,276,237.85Z"/><path class="cls-4" d="M15.23,249.55H12.77v-.88h6v.88H16.29v7.2H15.23Z"/><path class="cls-4" d="M19.54,248.24H20.6v3.62h0a2,2,0,0,1,.76-.75,2.16,2.16,0,0,1,1.08-.3c.78,0,2,.48,2,2.49v3.45H23.43v-3.33c0-.94-.35-1.73-1.35-1.73a1.51,1.51,0,0,0-1.41,1.06,1.23,1.23,0,0,0-.07.5v3.5H19.54Z"/><path class="cls-4" d="M27.38,249.31a.66.66,0,0,1-1.31,0,.64.64,0,0,1,.66-.65A.62.62,0,0,1,27.38,249.31Zm-1.18,7.44V251h1.06v5.8Z"/><path class="cls-4" d="M28.87,255.67a2.69,2.69,0,0,0,1.39.42c.77,0,1.12-.38,1.12-.86s-.3-.78-1.07-1.07c-1-.37-1.54-.95-1.54-1.64a1.79,1.79,0,0,1,2-1.71,2.91,2.91,0,0,1,1.43.36l-.26.77a2.32,2.32,0,0,0-1.19-.33c-.62,0-1,.36-1,.79s.35.69,1.1,1c1,.38,1.52.89,1.52,1.75,0,1-.79,1.74-2.17,1.74a3.44,3.44,0,0,1-1.63-.39Z"/><path class="cls-4" d="M36.31,252.84c0-.74,0-1.34-.05-1.89h1l0,1h0a2.27,2.27,0,0,1,2.06-1.13c1.4,0,2.46,1.19,2.46,2.95,0,2.09-1.27,3.12-2.64,3.12a2,2,0,0,1-1.79-.91h0v3.16h-1Zm1,1.55a2,2,0,0,0,0,.43A1.63,1.63,0,0,0,39,256.06c1.12,0,1.76-.92,1.76-2.25,0-1.16-.61-2.16-1.72-2.16a1.7,1.7,0,0,0-1.6,1.31,2,2,0,0,0-.07.43Z"/><path class="cls-4" d="M46.35,256.75l-.09-.73h0a2.16,2.16,0,0,1-1.78.86,1.65,1.65,0,0,1-1.77-1.66c0-1.41,1.25-2.18,3.49-2.16v-.12a1.2,1.2,0,0,0-1.32-1.35,2.84,2.84,0,0,0-1.51.44l-.24-.7a3.6,3.6,0,0,1,1.9-.52c1.78,0,2.21,1.22,2.21,2.38v2.17a8.4,8.4,0,0,0,.1,1.39Zm-.16-3c-1.15,0-2.46.18-2.46,1.31a.93.93,0,0,0,1,1,1.45,1.45,0,0,0,1.4-1,1,1,0,0,0,.06-.33Z"/><path class="cls-4" d="M53.92,251c0,.42-.05.88-.05,1.59v3.37a3.31,3.31,0,0,1-.83,2.65,3.06,3.06,0,0,1-2.11.7,3.78,3.78,0,0,1-1.93-.48l.27-.81a3.25,3.25,0,0,0,1.7.46c1.08,0,1.87-.56,1.87-2v-.64h0a2.08,2.08,0,0,1-1.85,1,2.6,2.6,0,0,1-2.47-2.83,2.79,2.79,0,0,1,2.61-3.09,1.92,1.92,0,0,1,1.81,1h0l0-.87Zm-1.09,2.29a1.44,1.44,0,0,0-.06-.48,1.53,1.53,0,0,0-1.48-1.12c-1,0-1.72.85-1.72,2.2,0,1.14.57,2.08,1.71,2.08a1.52,1.52,0,0,0,1.46-1.08,1.82,1.82,0,0,0,.09-.56Z"/><path class="cls-4" d="M56.21,254a1.87,1.87,0,0,0,2,2,3.92,3.92,0,0,0,1.61-.3l.18.75a4.67,4.67,0,0,1-1.93.36,2.69,2.69,0,0,1-2.85-2.93c0-1.75,1-3.13,2.72-3.13a2.47,2.47,0,0,1,2.4,2.74,4.35,4.35,0,0,1,0,.49Zm3.1-.76a1.5,1.5,0,0,0-1.47-1.71,1.74,1.74,0,0,0-1.61,1.71Z"/><path class="cls-4" d="M65.36,249.31a.66.66,0,0,1-1.31,0,.64.64,0,0,1,.66-.65A.62.62,0,0,1,65.36,249.31Zm-1.18,7.44V251h1.06v5.8Z"/><path class="cls-4" d="M66.85,255.67a2.69,2.69,0,0,0,1.39.42c.76,0,1.12-.38,1.12-.86s-.3-.78-1.07-1.07c-1.05-.37-1.54-.95-1.54-1.64a1.79,1.79,0,0,1,2-1.71,2.91,2.91,0,0,1,1.43.36l-.26.77a2.32,2.32,0,0,0-1.19-.33c-.63,0-1,.36-1,.79s.34.69,1.1,1c1,.38,1.52.89,1.52,1.75,0,1-.79,1.74-2.17,1.74a3.44,3.44,0,0,1-1.63-.39Z"/><path class="cls-4" d="M74.29,248.24h1v8.51h-1Z"/><path class="cls-4" d="M82.37,253.8a2.83,2.83,0,0,1-2.89,3.08,2.76,2.76,0,0,1-2.78-3,2.84,2.84,0,0,1,2.88-3.09A2.76,2.76,0,0,1,82.37,253.8Zm-4.6.06c0,1.27.73,2.23,1.76,2.23s1.76-.95,1.76-2.25c0-1-.49-2.23-1.74-2.23S77.77,252.76,77.77,253.86Z"/><path class="cls-4" d="M87.84,256.54a3.9,3.9,0,0,1-1.66.33,2.76,2.76,0,0,1-2.89-3,2.94,2.94,0,0,1,3.11-3.08,3.45,3.45,0,0,1,1.47.3l-.24.81a2.51,2.51,0,0,0-1.23-.27,2.19,2.19,0,0,0,0,4.36,2.86,2.86,0,0,0,1.29-.29Z"/><path class="cls-4" d="M92.3,256.75l-.09-.73h0a2.16,2.16,0,0,1-1.78.86,1.65,1.65,0,0,1-1.77-1.66c0-1.41,1.24-2.18,3.49-2.16v-.12a1.21,1.21,0,0,0-1.32-1.35,2.82,2.82,0,0,0-1.51.44l-.24-.7a3.6,3.6,0,0,1,1.9-.52c1.78,0,2.21,1.22,2.21,2.38v2.17a7.44,7.44,0,0,0,.1,1.39Zm-.16-3c-1.15,0-2.46.18-2.46,1.31a.93.93,0,0,0,1,1,1.45,1.45,0,0,0,1.4-1,1,1,0,0,0,.06-.33Z"/><path class="cls-4" d="M96.09,249.28V251H97.6v.8H96.09v3.13c0,.72.2,1.13.79,1.13a2.6,2.6,0,0,0,.61-.07l.05.79a2.69,2.69,0,0,1-.94.14,1.5,1.5,0,0,1-1.14-.44,2.2,2.2,0,0,1-.4-1.51v-3.17h-.9V251h.9v-1.4Z"/><path class="cls-4" d="M99.31,254a1.86,1.86,0,0,0,2,2,3.91,3.91,0,0,0,1.6-.3l.18.75a4.63,4.63,0,0,1-1.93.36,2.69,2.69,0,0,1-2.85-2.93c0-1.75,1-3.13,2.72-3.13a2.46,2.46,0,0,1,2.4,2.74,4.35,4.35,0,0,1,0,.49Zm3.09-.76a1.5,1.5,0,0,0-1.46-1.71,1.74,1.74,0,0,0-1.62,1.71Z"/><path class="cls-4" d="M109.74,248.24v7c0,.52,0,1.1.05,1.5h-1l0-1h0a2.14,2.14,0,0,1-2,1.14c-1.4,0-2.48-1.18-2.48-2.95,0-1.93,1.19-3.12,2.6-3.12a1.93,1.93,0,0,1,1.75.89h0v-3.46Zm-1,5.07a2.2,2.2,0,0,0,0-.44,1.55,1.55,0,0,0-1.52-1.23c-1.1,0-1.74,1-1.74,2.24S106,256,107.09,256a1.59,1.59,0,0,0,1.55-1.26,2.14,2.14,0,0,0,0-.45Z"/><path class="cls-4" d="M117.26,256.75l-.09-.73h0a2.16,2.16,0,0,1-1.78.86,1.65,1.65,0,0,1-1.77-1.66c0-1.41,1.24-2.18,3.49-2.16v-.12a1.21,1.21,0,0,0-1.32-1.35,2.82,2.82,0,0,0-1.51.44l-.25-.7a3.64,3.64,0,0,1,1.91-.52c1.78,0,2.21,1.22,2.21,2.38v2.17a8.47,8.47,0,0,0,.09,1.39Zm-.16-3c-1.15,0-2.46.18-2.46,1.31a.93.93,0,0,0,1,1,1.45,1.45,0,0,0,1.4-1,1,1,0,0,0,.06-.33Z"/><path class="cls-4" d="M121.05,249.28V251h1.51v.8h-1.51v3.13c0,.72.2,1.13.79,1.13a2.6,2.6,0,0,0,.61-.07l0,.79a2.73,2.73,0,0,1-.94.14,1.5,1.5,0,0,1-1.14-.44,2.15,2.15,0,0,1-.4-1.51v-3.17h-.9V251h.9v-1.4Z"/><path class="cls-7" d="M126.7,251l1.14,3.26c.19.53.35,1,.47,1.49h0c.13-.48.3-1,.49-1.49L130,251h1.11l-2.28,5.8h-1l-2.21-5.8Z"/><path class="cls-7" d="M133.24,249.31a.62.62,0,0,1-.67.65.65.65,0,0,1,0-1.3A.62.62,0,0,1,133.24,249.31Zm-1.18,7.44V251h1.06v5.8Z"/><path class="cls-7" d="M135.46,254a1.86,1.86,0,0,0,2,2,4,4,0,0,0,1.61-.3l.18.75a4.67,4.67,0,0,1-1.93.36,2.7,2.7,0,0,1-2.86-2.93c0-1.75,1-3.13,2.72-3.13a2.46,2.46,0,0,1,2.4,2.74,4.88,4.88,0,0,1,0,.49Zm3.09-.76a1.49,1.49,0,0,0-1.46-1.71,1.75,1.75,0,0,0-1.62,1.71Z"/><path class="cls-7" d="M141.3,251l.77,3c.17.64.33,1.24.43,1.84h0c.13-.58.32-1.21.51-1.83l.95-3h.89l.9,2.9c.21.69.38,1.31.51,1.89h0a19.14,19.14,0,0,1,.44-1.88l.83-2.91h1l-1.88,5.8h-.95l-.89-2.77a19.11,19.11,0,0,1-.52-1.91h0a19,19,0,0,1-.53,1.92l-.94,2.76h-1l-1.76-5.8Z"/><path class="cls-7" d="M149.5,255.67a2.69,2.69,0,0,0,1.39.42c.77,0,1.13-.38,1.13-.86s-.3-.78-1.08-1.07c-1-.37-1.54-.95-1.54-1.64a1.8,1.8,0,0,1,2-1.71,2.9,2.9,0,0,1,1.42.36l-.26.77a2.32,2.32,0,0,0-1.19-.33c-.62,0-1,.36-1,.79s.35.69,1.11,1c1,.38,1.52.89,1.52,1.75,0,1-.79,1.74-2.17,1.74a3.38,3.38,0,0,1-1.63-.39Z"/><path class="cls-7" d="M153.51,257.23l3.34-8.69h.82l-3.36,8.69Z"/><path class="cls-7" d="M159.69,249.31a.66.66,0,0,1-1.31,0,.64.64,0,0,1,.66-.65A.62.62,0,0,1,159.69,249.31Zm-1.18,7.44V251h1.06v5.8Z"/><path class="cls-7" d="M161.32,252.52c0-.6,0-1.09,0-1.57h.94l.06,1h0a2.13,2.13,0,0,1,1.92-1.1c.8,0,2,.48,2,2.47v3.47h-1V253.4c0-.93-.35-1.71-1.35-1.71a1.5,1.5,0,0,0-1.41,1.08,1.45,1.45,0,0,0-.07.49v3.49h-1.06Z"/><path class="cls-7" d="M173,248.24v7c0,.52,0,1.1,0,1.5h-.95l0-1h0a2.14,2.14,0,0,1-2,1.14c-1.4,0-2.48-1.18-2.48-2.95,0-1.93,1.19-3.12,2.6-3.12a1.93,1.93,0,0,1,1.75.89h0v-3.46Zm-1.05,5.07a1.65,1.65,0,0,0-.05-.44,1.55,1.55,0,0,0-1.52-1.23c-1.09,0-1.74,1-1.74,2.24s.57,2.15,1.71,2.15a1.59,1.59,0,0,0,1.55-1.26,1.64,1.64,0,0,0,.05-.45Z"/><path class="cls-7" d="M175.34,254a1.86,1.86,0,0,0,2,2,3.91,3.91,0,0,0,1.6-.3l.18.75a4.63,4.63,0,0,1-1.93.36,2.69,2.69,0,0,1-2.85-2.93c0-1.75,1-3.13,2.72-3.13a2.46,2.46,0,0,1,2.4,2.74,2.81,2.81,0,0,1,0,.49Zm3.09-.76a1.5,1.5,0,0,0-1.46-1.71,1.74,1.74,0,0,0-1.62,1.71Z"/><path class="cls-7" d="M181.22,251l.82,1.24c.22.33.4.63.59.95h0c.19-.35.38-.65.57-1l.82-1.23h1.14l-2,2.8,2,3h-1.2l-.85-1.31c-.23-.33-.42-.66-.63-1h0c-.19.34-.4.66-.61,1l-.84,1.31h-1.17l2.07-3L180,251Z"/><path class="cls-7" d="M185.39,257.23l3.35-8.69h.81l-3.35,8.69Z"/><path class="cls-7" d="M191.57,249.31a.62.62,0,0,1-.67.65.65.65,0,0,1,0-1.3A.62.62,0,0,1,191.57,249.31Zm-1.17,7.44V251h1v5.8Z"/><path class="cls-7" d="M193.2,252.52c0-.6,0-1.09,0-1.57h.93l.06,1h0a2.11,2.11,0,0,1,1.91-1.1c.81,0,2.06.48,2.06,2.47v3.47h-1.06V253.4c0-.93-.35-1.71-1.34-1.71a1.5,1.5,0,0,0-1.42,1.08,1.45,1.45,0,0,0-.07.49v3.49H193.2Z"/><path class="cls-7" d="M204.88,248.24v7c0,.52,0,1.1.05,1.5h-1l0-1h0a2.16,2.16,0,0,1-2,1.14c-1.41,0-2.49-1.18-2.49-2.95,0-1.93,1.19-3.12,2.61-3.12a2,2,0,0,1,1.75.89h0v-3.46Zm-1.06,5.07a1.65,1.65,0,0,0,0-.44,1.54,1.54,0,0,0-1.52-1.23c-1.09,0-1.74,1-1.74,2.24s.58,2.15,1.72,2.15a1.59,1.59,0,0,0,1.54-1.26,1.64,1.64,0,0,0,0-.45Z"/><path class="cls-7" d="M207.22,254a1.86,1.86,0,0,0,2,2,4,4,0,0,0,1.61-.3l.18.75a4.67,4.67,0,0,1-1.93.36,2.7,2.7,0,0,1-2.86-2.93c0-1.75,1-3.13,2.72-3.13a2.46,2.46,0,0,1,2.4,2.74,4.88,4.88,0,0,1,0,.49Zm3.09-.76a1.49,1.49,0,0,0-1.46-1.71,1.75,1.75,0,0,0-1.62,1.71Z"/><path class="cls-7" d="M213.1,251l.83,1.24.59.95h0c.19-.35.38-.65.58-1l.81-1.23h1.14l-2,2.8,2,3h-1.2l-.85-1.31c-.23-.33-.42-.66-.62-1h0c-.19.34-.39.66-.61,1l-.84,1.31h-1.16l2.06-3-2-2.84Z"/><path class="cls-7" d="M217.91,256.13a.71.71,0,0,1,.72-.76.76.76,0,1,1-.72.76Z"/><path class="cls-7" d="M221.06,251l1.14,3.26a15.54,15.54,0,0,1,.46,1.49h0c.13-.48.3-1,.49-1.49l1.13-3.26h1.1l-2.28,5.8h-1l-2.21-5.8Z"/><path class="cls-7" d="M231.55,253.8a2.83,2.83,0,0,1-2.89,3.08,2.76,2.76,0,0,1-2.78-3,2.84,2.84,0,0,1,2.88-3.09A2.75,2.75,0,0,1,231.55,253.8Zm-4.6.06c0,1.27.73,2.23,1.76,2.23s1.76-.95,1.76-2.25c0-1-.49-2.23-1.74-2.23S227,252.76,227,253.86Z"/><path class="cls-7" d="M232.89,248.24h1.05v8.51h-1.05Z"/><path class="cls-7" d="M237,249.28V251h1.51v.8H237v3.13c0,.72.2,1.13.79,1.13a2.6,2.6,0,0,0,.61-.07l.05.79a2.67,2.67,0,0,1-.93.14,1.49,1.49,0,0,1-1.14-.44,2.15,2.15,0,0,1-.41-1.51v-3.17h-.9V251h.9v-1.4Z"/><path class="cls-4" d="M35.47,409.13l-2.64-8.08H34l1.26,4c.35,1.09.65,2.08.86,3h0c.23-.94.56-2,.92-3l1.37-4h1.12l-2.9,8.08Z"/><path class="cls-4" d="M45,407.55c0,.6,0,1.13,0,1.58h-.94l-.06-.94h0a2.19,2.19,0,0,1-1.92,1.08c-.91,0-2-.51-2-2.55v-3.39h1v3.21c0,1.11.34,1.85,1.3,1.85a1.47,1.47,0,0,0,1.48-1.5v-3.56H45Z"/><path class="cls-4" d="M47.34,406.42a1.87,1.87,0,0,0,2,2,3.8,3.8,0,0,0,1.61-.3l.18.75a4.67,4.67,0,0,1-1.93.36,2.69,2.69,0,0,1-2.86-2.92c0-1.75,1-3.13,2.73-3.13a2.46,2.46,0,0,1,2.4,2.73,4,4,0,0,1,0,.49Zm3.1-.75A1.51,1.51,0,0,0,49,404a1.77,1.77,0,0,0-1.62,1.72Z"/><path class="cls-4" d="M55.31,405.14c0-.68,0-1.27-.05-1.81h.93l0,1.14h.05a1.74,1.74,0,0,1,1.61-1.27,1.39,1.39,0,0,1,.3,0v1a1.88,1.88,0,0,0-.36,0,1.48,1.48,0,0,0-1.42,1.36,3.37,3.37,0,0,0,0,.49v3.09h-1Z"/><path class="cls-4" d="M59.7,406.42a1.87,1.87,0,0,0,2,2,3.8,3.8,0,0,0,1.61-.3l.18.75a4.67,4.67,0,0,1-1.93.36,2.69,2.69,0,0,1-2.86-2.92c0-1.75,1-3.13,2.73-3.13a2.46,2.46,0,0,1,2.39,2.73,4.49,4.49,0,0,1,0,.49Zm3.1-.75A1.51,1.51,0,0,0,61.33,404a1.76,1.76,0,0,0-1.62,1.72Z"/><path class="cls-4" d="M65.12,404.9c0-.6,0-1.09,0-1.57H66l.06,1h0A2.13,2.13,0,0,1,68,403.2c.8,0,2,.48,2,2.47v3.46H69v-3.34c0-.94-.35-1.72-1.34-1.72a1.51,1.51,0,0,0-1.42,1.08,1.49,1.49,0,0,0-.07.49v3.49H65.12Z"/><path class="cls-4" d="M76.8,400.62v7c0,.51,0,1.1,0,1.49H75.9l-.05-1h0a2.15,2.15,0,0,1-2,1.14c-1.41,0-2.48-1.19-2.48-2.95,0-1.93,1.18-3.12,2.6-3.12a1.93,1.93,0,0,1,1.75.89h0v-3.47Zm-1.06,5.07a1.65,1.65,0,0,0,0-.44A1.54,1.54,0,0,0,74.17,404c-1.09,0-1.74,1-1.74,2.24s.58,2.15,1.72,2.15a1.58,1.58,0,0,0,1.54-1.26,1.71,1.71,0,0,0,0-.46Z"/><path class="cls-4" d="M79.14,406.42a1.87,1.87,0,0,0,2,2,3.8,3.8,0,0,0,1.61-.3l.18.75a4.67,4.67,0,0,1-1.93.36,2.69,2.69,0,0,1-2.86-2.92c0-1.75,1-3.13,2.73-3.13a2.46,2.46,0,0,1,2.39,2.73,4.49,4.49,0,0,1,0,.49Zm3.1-.75A1.51,1.51,0,0,0,80.77,404a1.76,1.76,0,0,0-1.62,1.72Z"/><path class="cls-4" d="M84.56,405.14c0-.68,0-1.27,0-1.81h.92l0,1.14h0a1.75,1.75,0,0,1,1.61-1.27,1.32,1.32,0,0,1,.3,0v1a1.79,1.79,0,0,0-.36,0,1.48,1.48,0,0,0-1.41,1.36,2.38,2.38,0,0,0,0,.49v3.09h-1Z"/><path class="cls-4" d="M89.71,401.7a.65.65,0,1,1-1.3,0,.64.64,0,0,1,.65-.66A.63.63,0,0,1,89.71,401.7Zm-1.17,7.43v-5.8h1v5.8Z"/><path class="cls-4" d="M91.34,404.9c0-.6,0-1.09,0-1.57h.93l.06,1h0a2.13,2.13,0,0,1,1.92-1.09c.8,0,2.05.48,2.05,2.47v3.46H95.23v-3.34c0-.94-.35-1.72-1.34-1.72a1.51,1.51,0,0,0-1.42,1.08,1.49,1.49,0,0,0-.07.49v3.49H91.34Z"/><path class="cls-4" d="M103,403.33c0,.42-.05.89-.05,1.59v3.37a3.37,3.37,0,0,1-.83,2.66,3.11,3.11,0,0,1-2.11.69,3.76,3.76,0,0,1-1.93-.48l.26-.8a3.32,3.32,0,0,0,1.71.45c1.08,0,1.87-.56,1.87-2v-.65h0a2.05,2.05,0,0,1-1.84,1,2.6,2.6,0,0,1-2.48-2.83,2.79,2.79,0,0,1,2.62-3.08,1.92,1.92,0,0,1,1.81,1h0l0-.88Zm-1.1,2.29a1.47,1.47,0,0,0-.06-.48,1.51,1.51,0,0,0-1.47-1.11c-1,0-1.73.85-1.73,2.19,0,1.14.58,2.09,1.72,2.09a1.54,1.54,0,0,0,1.46-1.08,1.87,1.87,0,0,0,.08-.57Z"/><path class="cls-4" d="M107.36,409.13v-5h-.81v-.8h.81v-.28a2.7,2.7,0,0,1,.68-2,2,2,0,0,1,1.41-.54,2.32,2.32,0,0,1,.9.17l-.14.81a1.62,1.62,0,0,0-.67-.13c-.9,0-1.13.79-1.13,1.68v.31h1.4v.8h-1.4v5Z"/><path class="cls-4" d="M110.76,405.14c0-.68,0-1.27-.05-1.81h.93l0,1.14h0a1.74,1.74,0,0,1,1.61-1.27,1.39,1.39,0,0,1,.3,0v1a1.88,1.88,0,0,0-.36,0,1.49,1.49,0,0,0-1.42,1.36,3.37,3.37,0,0,0,0,.49v3.09h-1Z"/><path class="cls-4" d="M119.82,406.18a2.84,2.84,0,0,1-2.89,3.09,2.76,2.76,0,0,1-2.78-3A2.83,2.83,0,0,1,117,403.2,2.75,2.75,0,0,1,119.82,406.18Zm-4.61.06c0,1.28.73,2.24,1.77,2.24s1.76-1,1.76-2.26c0-1-.49-2.23-1.74-2.23S115.21,405.14,115.21,406.24Z"/><path class="cls-4" d="M121.15,404.9c0-.6,0-1.09-.05-1.57H122l.06,1h0A2.14,2.14,0,0,1,124,403.2c.81,0,2,.48,2,2.47v3.46h-1v-3.34c0-.94-.35-1.72-1.34-1.72a1.51,1.51,0,0,0-1.42,1.08,1.49,1.49,0,0,0-.07.49v3.49h-1.06Z"/><path class="cls-4" d="M129,401.66v1.67h1.51v.8H129v3.13c0,.72.2,1.13.79,1.13a2.21,2.21,0,0,0,.61-.07l.05.79a2.73,2.73,0,0,1-.94.14,1.45,1.45,0,0,1-1.14-.44,2.15,2.15,0,0,1-.41-1.51v-3.17h-.89v-.8H128v-1.39Z"/><path class="cls-4" d="M132.25,406.42a1.87,1.87,0,0,0,2,2,3.8,3.8,0,0,0,1.61-.3l.18.75a4.67,4.67,0,0,1-1.93.36,2.69,2.69,0,0,1-2.86-2.92c0-1.75,1-3.13,2.73-3.13a2.46,2.46,0,0,1,2.4,2.73,4,4,0,0,1,0,.49Zm3.1-.75a1.51,1.51,0,0,0-1.47-1.72,1.77,1.77,0,0,0-1.62,1.72Z"/><path class="cls-4" d="M137.68,404.9c0-.6,0-1.09-.05-1.57h.93l.06,1h0a2.14,2.14,0,0,1,1.92-1.09c.8,0,2.05.48,2.05,2.47v3.46h-1.06v-3.34c0-.94-.35-1.72-1.34-1.72a1.51,1.51,0,0,0-1.42,1.08,1.81,1.81,0,0,0-.07.49v3.49h-1Z"/><path class="cls-4" d="M149.35,400.62v7c0,.51,0,1.1.05,1.49h-1l0-1h0a2.15,2.15,0,0,1-2,1.14c-1.4,0-2.48-1.19-2.48-2.95,0-1.93,1.18-3.12,2.6-3.12a1.93,1.93,0,0,1,1.75.89h0v-3.47Zm-1.06,5.07a2.18,2.18,0,0,0,0-.44,1.56,1.56,0,0,0-1.53-1.22c-1.09,0-1.74,1-1.74,2.24s.58,2.15,1.72,2.15a1.6,1.6,0,0,0,1.55-1.26,2.25,2.25,0,0,0,0-.46Z"/></g></g></svg>